<svg xmlns="http://www.w3.org/2000/svg" width="1711.011" height="1348.086" viewBox="0 0 1711.011 1348.086">
  <g id="Dual_blob_6_" data-name="Dual_blob (6)" transform="translate(332.089 -30.217) rotate(22)">
    <path id="jan-huber-kO8f82u73Es-unsplash" d="M1239.93,512.112Q1072.911,590.951,993.8,669.79t-237.343,131.4q-158.229,52.56-421.943,32.85T18.054,623.8Q-34.689,433.273,149.911,315.014T483.949,163.906q149.438-32.85,316.457-98.549t421.943-39.42q254.924,26.28,219.762,216.808T1239.93,512.112Z" transform="translate(0 62.761)" fill="#09173e"/>
    <path id="Path_1640" data-name="Path 1640" d="M1239.93,512.112Q1072.911,590.951,993.8,669.79t-237.343,131.4q-158.229,52.56-421.943,32.85T18.054,623.8Q-34.689,433.273,149.911,315.014T483.949,163.906q149.438-32.85,316.457-98.549t421.943-39.42q254.924,26.28,219.762,216.808T1239.93,512.112Z" transform="translate(44.464 -4.25)" fill="none" stroke="#f8bc15" stroke-width="3"/>
  </g>
</svg>
