<svg xmlns="http://www.w3.org/2000/svg" width="88.595" height="112.758" viewBox="0 0 88.595 112.758">
  <g id="Group_107" data-name="Group 107" transform="translate(-1758 -1497.489)">
    <g id="Group_102" data-name="Group 102" transform="translate(1758 1497.489)">
      <path id="Path_148" data-name="Path 148" d="M93.6,4.014V90.6L69.433,114.758H7.014A1.994,1.994,0,0,1,5,112.744V4.014A1.994,1.994,0,0,1,7.014,2H91.582A1.994,1.994,0,0,1,93.6,4.014Z" transform="translate(-5 -2)" fill="#e6ecff"/>
      <path id="Path_149" data-name="Path 149" d="M82.481,64.719,69.433,77.767H7.014A1.994,1.994,0,0,1,5,75.753V14.22C14.665,35.684,35.928,59.444,82.481,64.719Z" transform="translate(-5 34.991)" fill="#c5d1ed"/>
      <g id="Group_87" data-name="Group 87" transform="translate(40.271 12.081)">
        <path id="Path_150" data-name="Path 150" d="M37.149,9.027H17.014a2.014,2.014,0,1,1,0-4.027H37.149a2.014,2.014,0,0,1,0,4.027Z" transform="translate(-15 -5)" fill="#f8bc15"/>
      </g>
      <g id="Group_88" data-name="Group 88" transform="translate(48.325 24.162)">
        <path id="Path_151" data-name="Path 151" d="M43.176,12.027H19.014a2.014,2.014,0,0,1,0-4.027H43.176a2.014,2.014,0,1,1,0,4.027Z" transform="translate(-17 -8)" fill="#f8bc15"/>
      </g>
      <g id="Group_89" data-name="Group 89" transform="translate(48.325 36.244)">
        <path id="Path_152" data-name="Path 152" d="M43.176,15.027H19.014a2.014,2.014,0,0,1,0-4.027H43.176a2.014,2.014,0,1,1,0,4.027Z" transform="translate(-17 -11)" fill="#f8bc15"/>
      </g>
      <g id="Group_90" data-name="Group 90" transform="translate(48.325 48.325)">
        <path id="Path_153" data-name="Path 153" d="M43.176,18.027H19.014a2.014,2.014,0,1,1,0-4.027H43.176a2.014,2.014,0,1,1,0,4.027Z" transform="translate(-17 -14)" fill="#f8bc15"/>
      </g>
      <g id="Group_91" data-name="Group 91" transform="translate(12.081 60.406)">
        <path id="Path_154" data-name="Path 154" d="M30.149,21.027H10.014a2.014,2.014,0,1,1,0-4.027H30.149a2.014,2.014,0,0,1,0,4.027Z" transform="translate(-8 -17)" fill="#f8bc15"/>
      </g>
      <g id="Group_92" data-name="Group 92" transform="translate(56.379 72.487)">
        <path id="Path_155" data-name="Path 155" d="M37.122,24.027H21.014a2.014,2.014,0,0,1,0-4.027H37.122a2.014,2.014,0,1,1,0,4.027Z" transform="translate(-19 -20)" fill="#f8bc15"/>
      </g>
      <g id="Group_93" data-name="Group 93" transform="translate(12.081 84.568)">
        <path id="Path_156" data-name="Path 156" d="M36.189,25.014a1.994,1.994,0,0,1-2.014,2.014H10.014a2.014,2.014,0,1,1,0-4.027H34.176A1.994,1.994,0,0,1,36.189,25.014Z" transform="translate(-8 -23)" fill="#f8bc15"/>
      </g>
      <g id="Group_94" data-name="Group 94" transform="translate(12.081 96.649)">
        <path id="Path_157" data-name="Path 157" d="M14.041,30.027H10.014a2.014,2.014,0,0,1,0-4.027h4.027a2.014,2.014,0,0,1,0,4.027Z" transform="translate(-8 -26)" fill="#ca9b16"/>
      </g>
      <g id="Group_96" data-name="Group 96" transform="translate(12.081 72.487)">
        <g id="Group_95" data-name="Group 95">
          <path id="Path_158" data-name="Path 158" d="M48.271,22.014a1.994,1.994,0,0,1-2.014,2.014H10.014a2.014,2.014,0,1,1,0-4.027H46.257A1.994,1.994,0,0,1,48.271,22.014Z" transform="translate(-8 -20)" fill="#f8bc15"/>
        </g>
      </g>
      <g id="Group_97" data-name="Group 97" transform="translate(24.162 96.649)">
        <path id="Path_159" data-name="Path 159" d="M41.2,30.027H13.014a2.014,2.014,0,0,1,0-4.027H41.2a2.014,2.014,0,0,1,0,4.027Z" transform="translate(-11 -26)" fill="#ca9b16"/>
      </g>
      <g id="Group_98" data-name="Group 98" transform="translate(44.298 84.568)">
        <path id="Path_160" data-name="Path 160" d="M26.068,27.027H18.014a2.014,2.014,0,0,1,0-4.027h8.054a2.014,2.014,0,1,1,0,4.027Z" transform="translate(-16 -23)" fill="#f8bc15"/>
      </g>
      <g id="Group_99" data-name="Group 99" transform="translate(40.271 60.406)">
        <path id="Path_161" data-name="Path 161" d="M49.23,21.027H17.014a2.014,2.014,0,1,1,0-4.027H49.23a2.014,2.014,0,1,1,0,4.027Z" transform="translate(-15 -17)" fill="#f8bc15"/>
      </g>
      <g id="Group_100" data-name="Group 100" transform="translate(68.46 12.081)">
        <path id="Path_162" data-name="Path 162" d="M28.041,9.027H24.014a2.014,2.014,0,1,1,0-4.027h4.027a2.014,2.014,0,1,1,0,4.027Z" transform="translate(-22 -5)" fill="#f8bc15"/>
      </g>
      <path id="Path_164" data-name="Path 164" d="M45.162,24,21,48.162V26.014A1.994,1.994,0,0,1,23.014,24Z" transform="translate(43.433 64.595)" fill="#f8bc15"/>
      <path id="Path_165" data-name="Path 165" d="M33.854,27.027H10.014a2.014,2.014,0,1,1,0-4.027H26.726C28.941,24.409,31.317,25.738,33.854,27.027Z" transform="translate(4.081 61.568)" fill="#ca9b16"/>
      <path id="Path_166" data-name="Path 166" d="M15.933,24.027h-5.92a2.014,2.014,0,1,1,0-4.027H11.7C13.034,21.369,14.443,22.738,15.933,24.027Z" transform="translate(4.081 52.487)" fill="#ca9b16"/>
      <path id="Path_167" data-name="Path 167" d="M34.048,28.334,21,41.382V26.24C25.108,27.126,29.457,27.811,34.048,28.334Z" transform="translate(43.433 71.376)" fill="#ca9b16"/>
    </g>
    <path id="Path_177" data-name="Path 177" d="M39.217,14.432V35.624a4.262,4.262,0,0,1-4.233,4.233H15.233A4.227,4.227,0,0,1,11,35.624V14.432l1.58-.959,11.795-7.28a1.508,1.508,0,0,1,1.467,0Z" transform="translate(1757.433 1506.842)" fill="#ffcd43"/>
    <path id="Path_178" data-name="Path 178" d="M37.75,33.989a4.142,4.142,0,0,1-2.765,1.044H15.233A4.227,4.227,0,0,1,11,30.8V9.609l1.58-.959C15.035,17.849,21.384,30.377,37.75,33.989Z" transform="translate(1757.405 1511.665)" fill="#ffcd43"/>
    <path id="Path_179" data-name="Path 179" d="M25.287,17.233v9.876H14V17.233a3.872,3.872,0,0,1,.423-1.806A4.163,4.163,0,0,1,18.233,13h2.822A4.227,4.227,0,0,1,25.287,17.233Z" transform="translate(1762.898 1519.589)" fill="#ca9b16"/>
    <path id="Path_180" data-name="Path 180" d="M25.287,22.184v3.358H14V15.666a3.872,3.872,0,0,1,.423-1.806A30.273,30.273,0,0,0,25.287,22.184Z" transform="translate(1762.898 1521.156)" fill="#f3b915"/>
    <g id="Group_106" data-name="Group 106" transform="translate(1762.785 1512.844)">
      <path id="Path_89" data-name="Path 89" d="M48.31,19.427a1.426,1.426,0,0,1-1.947.48c-4.512-2.765-1.036-.626-17.608-10.835-16.566,10.2-13.093,8.067-17.608,10.835A1.418,1.418,0,0,1,9.68,17.48c6.38-3.917,2.63-1.608,18.341-11.287a1.508,1.508,0,0,1,1.467,0c15.881,9.783,12.06,7.432,18.341,11.287A1.429,1.429,0,0,1,48.31,19.427Z" transform="translate(-8.998 -6.002)" fill="#f8bc15"/>
    </g>
  </g>
</svg>
