<svg id="Group_83" data-name="Group 83" xmlns="http://www.w3.org/2000/svg" width="102.538" height="102.554" viewBox="0 0 102.538 102.554">
  <path id="Path_138" data-name="Path 138" d="M36.692,26.775l-9.961-9.961a1.9,1.9,0,0,0-1.447-.531,1.834,1.834,0,0,0-1.337.762,29.608,29.608,0,0,1-6.9,6.9,1.831,1.831,0,0,0-.227,2.783l9.958,9.965a1.839,1.839,0,0,0,2.593,0l7.324-7.324A1.837,1.837,0,0,0,36.692,26.775Z" transform="translate(36.02 36.029)" fill="#f8bc15"/>
  <path id="Path_139" data-name="Path 139" d="M58.395,58.358a12.157,12.157,0,0,1-17.249,0l-22.6-22.6a1.77,1.77,0,0,1,0-2.564L33.2,18.549a1.77,1.77,0,0,1,2.564,0l22.633,22.6a11.612,11.612,0,0,1,3.076,5.274A12.138,12.138,0,0,1,58.395,58.358Z" transform="translate(40.598 40.607)" fill="#f8bc15"/>
  <circle id="Ellipse_3" data-name="Ellipse 3" cx="35.05" cy="35.05" r="35.05" transform="translate(0 0)" fill="#e6ecff"/>
  <path id="Path_140" data-name="Path 140" d="M60.339,51.671A34.813,34.813,0,0,1,8.3,6.04C17.088,22.374,32.909,42.15,60.339,51.671Z" transform="translate(-1.998 8.767)" fill="#c5d1ed"/>
  <path id="Path_147" data-name="Path 147" d="M56.771,44.221a12.157,12.157,0,0,1-17.249,0L18.61,23.31c10.584,4.5,24.207,8.13,41.237,8.972A12.138,12.138,0,0,1,56.771,44.221Z" transform="translate(42.222 54.743)" fill="#ca9b16"/>
</svg>
