<svg id="Group_67" data-name="Group 67" xmlns="http://www.w3.org/2000/svg" width="90" height="89.492" viewBox="0 0 90 89.492">
  <path id="Path_71" data-name="Path 71" d="M72.073,32.536A30.518,30.518,0,0,1,26.141,58.893l-13.05,4.114a2.482,2.482,0,0,1-.482.064,1.508,1.508,0,0,1-1.125-.482,1.574,1.574,0,0,1-.418-1.607l4.114-13.05a30.531,30.531,0,1,1,56.893-15.4Z" transform="translate(17.927 -2)" fill="#dedede"/>
  <path id="Path_72" data-name="Path 72" d="M66.93,41.149a30.491,30.491,0,0,1-40.789,9.418l-13.05,4.114a2.482,2.482,0,0,1-.482.064,1.508,1.508,0,0,1-1.125-.482,1.574,1.574,0,0,1-.418-1.607l4.114-13.05A30.5,30.5,0,0,1,17.2,5.76C27.266,21.7,43.048,37.421,66.93,41.149Z" transform="translate(17.927 6.326)" fill="#c5d1ed"/>
  <path id="Path_73" data-name="Path 73" d="M44.929,17.127V36.541a4.508,4.508,0,0,1-.193,1.318,4.773,4.773,0,0,1-4.629,3.5H20.821A4.815,4.815,0,0,1,16,36.541V17.127L29.468,6.359a1.554,1.554,0,0,1,1.993,0Z" transform="translate(29 6.852)" fill="#ffcd43"/>
  <path id="Path_74" data-name="Path 74" d="M44.736,29.373a4.773,4.773,0,0,1-4.629,3.5H20.821A4.815,4.815,0,0,1,16,28.055V9.83A68.835,68.835,0,0,0,44.736,29.373Z" transform="translate(29 15.147)" fill="#ffcd43"/>
  <path id="Path_75" data-name="Path 75" d="M64.679,51.786H48.607a1.606,1.606,0,0,0-1.286.643L38.1,64.723A59.731,59.731,0,0,1,11.562,38.186l12.295-9.222a1.606,1.606,0,0,0,.643-1.286V11.607A1.608,1.608,0,0,0,22.893,10H3.607A1.608,1.608,0,0,0,2,11.607,62.751,62.751,0,0,0,64.679,74.286a1.608,1.608,0,0,0,1.607-1.607V53.393A1.608,1.608,0,0,0,64.679,51.786Z" transform="translate(-2 15.206)" fill="#f8bc15"/>
  <path id="Path_76" data-name="Path 76" d="M28.643,16.821v11.25H19V16.821a4.261,4.261,0,0,1,.611-2.282A4.72,4.72,0,0,1,23.821,12,4.815,4.815,0,0,1,28.643,16.821Z" transform="translate(35.643 19.922)" fill="#ca9b16"/>
  <g id="Group_32" data-name="Group 32" transform="translate(41.788 12.849)">
    <path id="Path_77" data-name="Path 77" d="M50,21.466a1.59,1.59,0,0,1-2.25.257C46.82,20.984,33.641,10.441,32.677,9.67c-.739.611-8.871,7.1-12.889,10.318-1.157.932-1.961,1.575-2.186,1.736a1.6,1.6,0,0,1-1.993-2.507c1-.8,1.446-1.157,1.993-1.575C18.92,16.581,20.72,15.134,31.68,6.359a1.554,1.554,0,0,1,1.993,0c15.493,12.407,12.7,10.157,16.071,12.857A1.593,1.593,0,0,1,50,21.466Z" transform="translate(-15.001 -5.998)" fill="#f8bc15"/>
  </g>
  <path id="Path_78" data-name="Path 78" d="M28.643,18.672v7.65H19V15.072a4.261,4.261,0,0,1,.611-2.282A67.082,67.082,0,0,0,28.643,18.672Z" transform="translate(35.643 21.662)" fill="#f8bc15"/>
  <path id="Path_79" data-name="Path 79" d="M19.787,11.966C18.63,12.9,17.827,13.541,17.6,13.7A1.6,1.6,0,0,1,15.609,11.2c1-.8,1.446-1.157,1.993-1.575C18.309,10.424,19.016,11.2,19.787,11.966Z" transform="translate(26.788 14.727)" fill="#f8bc15"/>
</svg>
