<svg xmlns="http://www.w3.org/2000/svg" width="120" height="85.709" viewBox="0 0 120 85.709">
  <g id="Group_113" data-name="Group 113" transform="translate(-2 -6.001)">
    <g id="Ads" transform="translate(2 6.001)">
      <path id="Path_181" data-name="Path 181" d="M55.59,55.768C47.743,40.078,44.04,32.664,35.7,16H5.19C16.324,38.27,15.159,35.93,26.019,57.654a2.194,2.194,0,0,0,1.929,1.2H53.661A2.23,2.23,0,0,0,55.5,57.825,2.186,2.186,0,0,0,55.59,55.768Z" transform="translate(8.481 26.855)" fill="#c5d1ed"/>
      <g id="Group_112" data-name="Group 112">
        <path id="Path_182" data-name="Path 182" d="M23.143,11A2.144,2.144,0,0,0,21,13.143V30.286a2.144,2.144,0,0,0,2.143,2.143,10.714,10.714,0,0,0,0-21.429Z" transform="translate(60.429 10.423)" fill="#f8bc15"/>
        <path id="Path_183" data-name="Path 183" d="M66.286,11.143V45.429a2.122,2.122,0,0,1-2.143,2.143H17a15.016,15.016,0,0,1-15-15V24a14.719,14.719,0,0,1,2.571-8.357A14.894,14.894,0,0,1,17,9H64.143A2.122,2.122,0,0,1,66.286,11.143Z" transform="translate(-2 3.852)" fill="#f8bc15"/>
        <g id="Group_109" data-name="Group 109" transform="translate(98.572 4.282)">
          <path id="Path_184" data-name="Path 184" d="M27.142,24.142a2.143,2.143,0,0,1-1.286-3.857L43,7.428a2.143,2.143,0,0,1,2.571,3.429L28.428,23.713A2.127,2.127,0,0,1,27.142,24.142Z" transform="translate(-25 -7)" fill="#f8bc15"/>
        </g>
        <g id="Group_110" data-name="Group 110" transform="translate(98.572 42.855)">
          <path id="Path_185" data-name="Path 185" d="M44.285,33.141A2.127,2.127,0,0,1,43,32.712L25.856,19.855a2.143,2.143,0,1,1,2.571-3.429L45.571,29.284a2.143,2.143,0,0,1-1.286,3.857Z" transform="translate(-25 -16.001)" fill="#f8bc15"/>
        </g>
        <g id="Group_111" data-name="Group 111" transform="translate(98.571 29.995)">
          <path id="Path_186" data-name="Path 186" d="M44.286,17.286H27.143a2.143,2.143,0,0,1,0-4.286H44.286a2.143,2.143,0,1,1,0,4.286Z" transform="translate(-25 -13)" fill="#f8bc15"/>
        </g>
        <path id="Path_187" data-name="Path 187" d="M66.286,36.564v3.771a2.122,2.122,0,0,1-2.143,2.143H17a15.016,15.016,0,0,1-15-15V18.907A14.719,14.719,0,0,1,4.571,10.55C17.986,20.107,37.871,30.307,66.286,36.564Z" transform="translate(-2 8.945)" fill="#ca9b16"/>
        <path id="Path_188" data-name="Path 188" d="M41.714,8.139v60a2.233,2.233,0,0,1-1.071,1.886,2.457,2.457,0,0,1-1.071.257,2.076,2.076,0,0,1-1.114-.3L16,57.425V18.853L38.457,6.3a2.324,2.324,0,0,1,2.186-.043A2.233,2.233,0,0,1,41.714,8.139Z" transform="translate(44 -6.001)" fill="#e6ecff"/>
        <path id="Path_189" data-name="Path 189" d="M41.714,21.1V34a2.233,2.233,0,0,1-1.071,1.886,2.457,2.457,0,0,1-1.071.257,2.076,2.076,0,0,1-1.114-.3L16,23.29v-6.9A232.471,232.471,0,0,0,41.714,21.1Z" transform="translate(44 28.133)" fill="#c5d1ed"/>
      </g>
    </g>
  </g>
</svg>
