<svg id="Group_68" data-name="Group 68" xmlns="http://www.w3.org/2000/svg" width="90" height="83.33" viewBox="0 0 90 83.33">
  <path id="Path_90" data-name="Path 90" d="M53.806,10.607V71.679A1.592,1.592,0,0,1,52.2,73.286H23.271a1.592,1.592,0,0,1-1.607-1.607V17.325l-2.314-6.139a1.6,1.6,0,0,1,.193-1.479A1.577,1.577,0,0,1,20.86,9H52.2A1.592,1.592,0,0,1,53.806,10.607Z" transform="translate(36.194 10.044)" fill="#e6ecff"/>
  <path id="Path_91" data-name="Path 91" d="M52.143,30.234v5.175a1.592,1.592,0,0,1-1.607,1.607H21.607A1.592,1.592,0,0,1,20,35.409V25.38A162.658,162.658,0,0,0,52.143,30.234Z" transform="translate(37.857 46.314)" fill="#c5d1ed"/>
  <path id="Path_92" data-name="Path 92" d="M36.457,11.186l-2.314,6.139V71.679a1.592,1.592,0,0,1-1.607,1.607H3.607A1.592,1.592,0,0,1,2,71.679V10.607A1.592,1.592,0,0,1,3.607,9H34.946a1.577,1.577,0,0,1,1.318.707A1.6,1.6,0,0,1,36.457,11.186Z" transform="translate(-2 10.044)" fill="#e6ecff"/>
  <path id="Path_93" data-name="Path 93" d="M34.143,49.142V69.553a1.592,1.592,0,0,1-1.607,1.607H3.607A1.592,1.592,0,0,1,2,69.553V9.96C6.018,22.528,14.857,37.892,34.143,49.142Z" transform="translate(-2 12.17)" fill="#c5d1ed"/>
  <g id="Group_38" data-name="Group 38" transform="translate(0 3.214)">
    <path id="Path_94" data-name="Path 94" d="M42.468,6.186,36.457,22.257a1.643,1.643,0,0,1-1.511,1.029H2V21.679a1.851,1.851,0,0,1,.257-.9L8.557,5a1.571,1.571,0,0,1,1.479-1H40.957a1.633,1.633,0,0,1,1.35.707A1.6,1.6,0,0,1,42.468,6.186Z" transform="translate(-2 -4)" fill="#f8bc15"/>
    <path id="Path_95" data-name="Path 95" d="M57.954,21.679v1.607H25.007A1.643,1.643,0,0,1,23.5,22.257L17.486,6.186a1.6,1.6,0,0,1,.161-1.479A1.633,1.633,0,0,1,19,4H49.918A1.571,1.571,0,0,1,51.4,5l6.3,15.782A1.8,1.8,0,0,1,57.954,21.679Z" transform="translate(32.046 -4)" fill="#f8bc15"/>
  </g>
  <path id="Path_96" data-name="Path 96" d="M43.143,30.243V86.33H11V30.243c.032-.192.064-.385.1-.545L19.968,6.109A4.836,4.836,0,0,1,24.468,3h5.207a4.836,4.836,0,0,1,4.5,3.109l8.871,23.557Z" transform="translate(17.929 -3)" fill="#d0dbf7"/>
  <rect id="Rectangle_8" data-name="Rectangle 8" width="12.685" height="19.329" rx="0.5" transform="translate(67.651 31.893)" fill="#f8bc15"/>
  <g id="Group_39" data-name="Group 39" transform="translate(64.286 48.069)">
    <path id="Path_97" data-name="Path 97" d="M39.679,21.214H23.607a1.607,1.607,0,1,1,0-3.214H39.679a1.607,1.607,0,0,1,0,3.214Z" transform="translate(-22 -18)" fill="#ca9b16"/>
  </g>
  <path id="Path_98" data-name="Path 98" d="M10.339,22.09A6.682,6.682,0,0,0,5,28.792V44.5H17.857V28.429A6.437,6.437,0,0,0,10.339,22.09Z" transform="translate(4.643 38.83)" fill="#ca9b16"/>
  <rect id="Rectangle_9" data-name="Rectangle 9" width="12.685" height="19.329" rx="0.5" transform="translate(9.664 31.893)" fill="#f8bc15"/>
  <rect id="Rectangle_10" data-name="Rectangle 10" width="12.685" height="15.705" rx="0.5" transform="translate(38.658 35.511)" fill="#f8bc15"/>
  <g id="Group_40" data-name="Group 40" transform="translate(35.357 48.069)">
    <path id="Path_99" data-name="Path 99" d="M30.679,21.214H14.607a1.607,1.607,0,0,1,0-3.214H30.679a1.607,1.607,0,1,1,0,3.214Z" transform="translate(-13 -18)" fill="#ca9b16"/>
  </g>
  <ellipse id="Ellipse_2" data-name="Ellipse 2" cx="6.342" cy="6.644" rx="6.342" ry="6.644" transform="translate(38.658 12.641)" fill="#4294ff"/>
  <path id="Path_100" data-name="Path 100" d="M43.143,34.686V45.519H11V21.54C19.357,26.94,29.9,31.569,43.143,34.686Z" transform="translate(17.929 37.812)" fill="#a0b5e0"/>
  <path id="Path_101" data-name="Path 101" d="M13.807,25.82h-7.2A1.592,1.592,0,0,1,5,24.213V15.92A67.172,67.172,0,0,0,13.807,25.82Z" transform="translate(4.643 25.473)" fill="#f8bc15"/>
  <g id="Group_41" data-name="Group 41" transform="translate(6.429 48.069)">
    <path id="Path_102" data-name="Path 102" d="M23.286,19.607a1.592,1.592,0,0,1-1.607,1.607H5.607a1.607,1.607,0,1,1,0-3.214H21.679A1.592,1.592,0,0,1,23.286,19.607Z" transform="translate(-4 -18)" fill="#ca9b16"/>
  </g>
  <path id="Path_103" data-name="Path 103" d="M16.021,21.214H5.607a1.607,1.607,0,1,1,0-3.214h7.168C13.8,19.093,14.864,20.186,16.021,21.214Z" transform="translate(2.429 30.069)" fill="#f8bc15"/>
  <rect id="Rectangle_11" data-name="Rectangle 11" width="12.685" height="16.309" rx="0.5" transform="translate(38.658 60.765)" fill="#f8bc15"/>
  <path id="Path_104" data-name="Path 104" d="M26.857,28.321v5.464a1.592,1.592,0,0,1-1.607,1.607H15.607A1.592,1.592,0,0,1,14,33.785V23.21A101.071,101.071,0,0,0,26.857,28.321Z" transform="translate(24.571 41.509)" fill="#ca9b16"/>
  <path id="Path_105" data-name="Path 105" d="M35.857,28.426V44.5H23V28.779a6.684,6.684,0,0,1,5.336-6.686A6.44,6.44,0,0,1,35.857,28.426Z" transform="translate(44.5 38.833)" fill="#f8bc15"/>
  <path id="Path_106" data-name="Path 106" d="M35.857,27.924V35.51H23V26.06C27.05,26.831,31.325,27.442,35.857,27.924Z" transform="translate(44.5 47.82)" fill="#ca9b16"/>
  <g id="Group_42" data-name="Group 42" transform="translate(35.357 73.687)">
    <path id="Path_107" data-name="Path 107" d="M30.679,29.214H14.607a1.607,1.607,0,1,1,0-3.214H30.679a1.607,1.607,0,1,1,0,3.214Z" transform="translate(-13 -26)" fill="#f8bc15"/>
  </g>
</svg>
