<svg id="Tv_Home" data-name="Tv Home" xmlns="http://www.w3.org/2000/svg" width="90" height="81.538" viewBox="0 0 90 81.538">
  <path id="Path_80" data-name="Path 80" d="M92,13.976v43.9a11.067,11.067,0,0,1-9,10.757h-.032a10.225,10.225,0,0,1-2.218.22H13.25A11.128,11.128,0,0,1,2,57.881v-43.9A11.128,11.128,0,0,1,13.25,3h67.5A11.128,11.128,0,0,1,92,13.976Z" transform="translate(-2 -3)" fill="#e6ecff"/>
  <path id="Path_81" data-name="Path 81" d="M83.188,54.134a10.28,10.28,0,0,1-2.224.22H13.281A11.144,11.144,0,0,1,2,43.377V9.79C14.28,29.641,38,51.343,83.188,54.134Z" transform="translate(-2 11.504)" fill="#c5d1ed"/>
  <rect id="Rectangle_4" data-name="Rectangle 4" width="12.862" height="15.434" rx="0.5" transform="translate(38.655 62.767)" fill="#f8bc15"/>
  <path id="Path_82" data-name="Path 82" d="M92,20v1.568a11.067,11.067,0,0,1-9,10.757h-.032a10.225,10.225,0,0,1-2.218.22H13.25A11.128,11.128,0,0,1,2,21.568V20Z" transform="translate(-2 33.313)" fill="#f8bc15"/>
  <g id="Group_34" data-name="Group 34" transform="translate(29.319 75.265)">
    <path id="Path_83" data-name="Path 83" d="M40.793,33.272a1.575,1.575,0,0,1-1.11-.458c-2.675-2.678-5.488-2.678-13-2.678s-10.327,0-13,2.678a1.57,1.57,0,0,1-2.22-2.22C15.055,27,18.7,27,26.681,27S38.306,27,41.9,30.594a1.568,1.568,0,0,1-1.11,2.678Z" transform="translate(-11 -27)" fill="#ca9b16"/>
  </g>
  <path id="Path_84" data-name="Path 84" d="M42.361,15.371V38.923a4.737,4.737,0,0,1-4.7,4.7H15.7a4.7,4.7,0,0,1-4.7-4.7V15.371l1.756-1.066L25.865,6.214a1.676,1.676,0,0,1,1.631,0Z" transform="translate(18.32 3.414)" fill="#ffcd43"/>
  <path id="Path_85" data-name="Path 85" d="M83.188,32.325a10.28,10.28,0,0,1-2.224.22H13.281A11.144,11.144,0,0,1,2,21.568V20H36.228C48.476,26.492,63.882,31.133,83.188,32.325Z" transform="translate(-2 33.313)" fill="#ca9b16"/>
  <path id="Path_86" data-name="Path 86" d="M40.73,36.812a4.6,4.6,0,0,1-3.073,1.16H15.7a4.7,4.7,0,0,1-4.7-4.7V9.716L12.756,8.65C15.485,18.874,22.541,32.8,40.73,36.812Z" transform="translate(18.289 9.069)" fill="#ffcd43"/>
  <path id="Path_87" data-name="Path 87" d="M26.544,17.7V28.68H14V17.7a4.3,4.3,0,0,1,.47-2.007A4.627,4.627,0,0,1,18.7,13H21.84A4.7,4.7,0,0,1,26.544,17.7Z" transform="translate(24.728 18.361)" fill="#ca9b16"/>
  <path id="Path_88" data-name="Path 88" d="M26.544,23.111v3.732H14V15.867a4.3,4.3,0,0,1,.47-2.007A33.645,33.645,0,0,0,26.544,23.111Z" transform="translate(24.728 20.198)" fill="#f3b915"/>
  <g id="Group_35" data-name="Group 35" transform="translate(23.043 9.416)">
    <path id="Path_89" data-name="Path 89" d="M52.689,20.922a1.585,1.585,0,0,1-2.164.533c-5.015-3.073-1.151-.7-19.569-12.042C12.544,20.753,16.4,18.379,11.387,21.455a1.576,1.576,0,0,1-1.631-2.7c7.091-4.353,2.923-1.788,20.384-12.544a1.676,1.676,0,0,1,1.631,0c17.65,10.873,13.4,8.26,20.384,12.544A1.588,1.588,0,0,1,52.689,20.922Z" transform="translate(-8.998 -6.003)" fill="#f8bc15"/>
  </g>
</svg>
