<svg xmlns="http://www.w3.org/2000/svg" width="194.897" height="184.009" viewBox="0 0 194.897 184.009">
  <g id="Group_68" data-name="Group 68" transform="matrix(-0.777, -0.629, 0.629, -0.777, -17.943, 720.808)">
    <path id="Path_1610" data-name="Path 1610" d="M413,515.176c-.039-.02-.016,0,0,0Z" transform="translate(-57.139 -0.835)" fill="#f1a31d"/>
    <path id="Path_1611" data-name="Path 1611" d="M390.829,526.456c-1.932-1.032-3.831-2.124-5.771-3.141q-2.881-1.508-5.823-2.892c-2.106-.99-4.237-1.927-6.383-2.826-1.992-.834-4.032-1.565-6.072-2.273-1.14-.4-2.283-.81-3.44-1.152-.58-.17-1.166-.324-1.748-.483q-.438-.119-.877-.236a8.7,8.7,0,0,0-1.024-.247c-1.057-.191-2.122-.41-3.192-.5l-.146-.012c.053,0,0,0-.165-.023l-.107-.018-.173-.03c-.265-.046-.531-.089-.8-.136a14.99,14.99,0,0,0-1.669-.134.4.4,0,0,0-.2.746q.421.218.839.44c.311.164.623.3.946.438l.228.1.1.041.075.032.022.009.094.04c.042.018.083.037.124.056a.727.727,0,0,0,.132.06c.116.048.137.057.063.027l0,0,.025.014c.039.023.08.044.119.065l.179.1c.15.083.3.155.458.227q.855.394,1.7.8c.38.181.758.355,1.15.508q.442.172.882.347.917.365,1.829.744c.5.224,1.021.4,1.527.594q.686.267,1.369.539,1.266.505,2.523,1.034c1.361.578,2.711,1.18,4.065,1.77q2.145.934,4.26,1.935,4.021,1.9,7.925,4.039a166.084,166.084,0,0,0-35.369,1.857,189.884,189.884,0,0,0-36.03,9.27,197.949,197.949,0,0,0-33.963,16.179,192.127,192.127,0,0,0-29.97,22.212,177.414,177.414,0,0,0-22.89,25.109c.02-.094.039-.189.06-.282q.816-3.681,1.456-7.4c.443-2.57.835-5.153,1.14-7.744q.439-3.737.7-7.49c.087-1.244.121-2.492.151-3.739.015-.623.011-1.247,0-1.871q0-.477-.011-.955c0-.147,0-.294,0-.441a1.64,1.64,0,0,0-.02-.27c0-.069-.011-.139-.015-.207-.008-.117-.013-.232-.029-.349l-.018-.128-.1-.23s.064.17.025.068c-.056-.142-.108-.286-.161-.428a.71.71,0,0,0-.58-.5.685.685,0,0,0-.694.333c-.063.137-.12.279-.189.414a.351.351,0,0,1-.064.113.953.953,0,0,0-.132.486c.041-.253,0-.028,0,.03-.061.419-.113.834-.157,1.256q-.109,1.047-.232,2.092l.043-.317c-.1.663-.146,1.337-.219,2q-.095.88-.2,1.759c.016-.118.032-.236.047-.354-.155,1.076-.233,2.166-.357,3.246q-.163,1.4-.35,2.8c-.428,3.15-.927,6.293-1.521,9.417-.6,3.173-1.259,6.349-2.15,9.454q-.381,1.325-.784,2.643c-.269.88-.6,1.742-.922,2.606a1.97,1.97,0,0,0,.514,1.944,2.008,2.008,0,0,0,1.944.514c.877-.245,1.733-.58,2.6-.869s1.738-.568,2.611-.836c1.748-.536,3.511-1.026,5.275-1.506q1.323-.361,2.655-.689c.887-.22,1.783-.406,2.669-.629,1.757-.444,3.524-.839,5.29-1.245.992-.228,1.985-.443,2.986-.625s2.032-.329,3.043-.516l-.39.052c1.052-.139,2.1-.336,3.146-.49a1.279,1.279,0,0,0,.771-.593,1.332,1.332,0,0,0,.153-.822,1.285,1.285,0,0,0-1.267-1.119c-1.27.023-2.539.064-3.807.153s-2.528.208-3.792.317c-.853.073-1.709.141-2.556.266l.488-.065c-.836.082-1.67.216-2.5.336q-1.023.148-2.042.314c-1.365.223-2.718.539-4.064.857-2.7.637-5.352,1.4-7.981,2.279l-.269.091c2.689-3.486,5.444-6.914,8.369-10.217,4.055-4.581,8.351-8.964,12.819-13.142a191.417,191.417,0,0,1,29.26-22.414,193.959,193.959,0,0,1,68.545-26.493,203.136,203.136,0,0,1,36.678-2.912c.293,0,.587.006.881.009q-1.826,1-3.622,2.054c-1.625.951-3.263,1.905-4.827,2.955s-3.119,2.134-4.648,3.245c-.965.7-1.892,1.456-2.818,2.207-.413.336-.822.673-1.222,1.025-.191.167-.383.333-.567.509a3.72,3.72,0,0,0-.555.725c-.324.278-.642.561-.961.844-.353.312-.692.658-1.062.95a1.305,1.305,0,0,0-.382.922,1.3,1.3,0,0,0,1.3,1.3l.347-.046a1.314,1.314,0,0,0,.457-.231c.363-.222.709-.481,1.062-.718s.688-.455,1.031-.685c.131-.04.261-.082.389-.126a4.834,4.834,0,0,0,.974-.523c.4-.251.8-.5,1.2-.764.779-.505,1.565-1,2.35-1.495s1.553-1.027,2.335-1.531q1.2-.776,2.421-1.528c1.6-.986,3.171-2,4.779-2.966s3.234-1.9,4.876-2.8c.919-.506,1.849-.988,2.77-1.489.94-.511,1.862-1.054,2.8-1.567A2.018,2.018,0,0,0,390.829,526.456Zm-34.517-13.763h0C356.252,512.687,356.25,512.687,356.312,512.692Z" transform="translate(0 0)" fill="#f1a31d"/>
  </g>
</svg>
