<svg xmlns="http://www.w3.org/2000/svg" width="100.791" height="96.545" viewBox="0 0 100.791 96.545">
  <g id="Group_67" data-name="Group 67" transform="translate(11614.097 12789.823)">
    <path id="Path_1604" data-name="Path 1604" d="M-11614.1-12261.124a9.5,9.5,0,0,1,2.819-5.263c2.294-2.055,5.048-2.289,7.925-2.133a8.974,8.974,0,0,1,6.585,3.659c2.784,3.4,5.518,6.839,8.244,10.284a1.751,1.751,0,0,0,1.563.752c2.688-.043,5.379-.023,8.068-.016,4.1.012,6.71,2.591,6.767,6.666.007.521,0,1.043,0,1.653h16.746a4.5,4.5,0,0,0,.07-.8c-.341-4.141,2.022-7.141,6.213-7.594a.988.988,0,0,0,.076-.271c-.037-4.458.024-8.92-.152-13.373a7.931,7.931,0,0,0-7.129-7.12q-7.365-.226-14.742,0a7.979,7.979,0,0,0-7.232,7.237c-.152,2.319-.1,4.651-.15,6.978a2.2,2.2,0,0,1-1.368,2.277,1.99,1.99,0,0,1-2.738-1.711c-.068-3.267-.448-6.567.369-9.793a12.452,12.452,0,0,1,11.6-9.3c4.557-.1,9.12-.114,13.676,0a12.479,12.479,0,0,1,12.034,12.093c.1,3.967.027,7.938.032,11.906v1.151c1.721,0,3.353.035,4.98-.031.3-.012.65-.383.88-.667,2.782-3.443,5.593-6.865,8.3-10.364,3.448-4.453,9.626-4.409,13.092-2.466a7.962,7.962,0,0,1,4.215,7.3c.048,9.184.069,18.368-.011,27.552a10.387,10.387,0,0,1-10.146,10.147c-4.164.077-8.331.051-12.5,0a1.411,1.411,0,0,0-1.582,1.023c-1.67,4.021-3.4,8.017-5.126,12.017-.562,1.3-1.365,1.8-2.48,1.59a1.961,1.961,0,0,1-1.651-2.276,5.184,5.184,0,0,1,.381-1.21c1.9-4.458,3.845-8.9,5.7-13.373a2.76,2.76,0,0,1,2.908-1.95c4.492.057,8.986.021,13.48.02,2.75,0,4.96-1.027,6.147-3.593a8,8,0,0,0,.678-3.224c.053-8.757.038-17.515.025-26.271,0-3.023-1.687-4.554-4.692-4.736a6.228,6.228,0,0,0-5.656,2.672c-2.812,3.586-5.709,7.106-8.525,10.689a3.237,3.237,0,0,1-2.856,1.363c-2.916-.064-5.835-.019-8.753-.021-2.5,0-3.122.621-3.115,3.152v1.026c.409.019.729.046,1.049.046,5.28,0,10.562-.012,15.842.019a1.7,1.7,0,0,0,1.543-.79c1.586-2.171,3.217-4.309,4.826-6.462a2.265,2.265,0,0,1,2.34-1.11,2.072,2.072,0,0,1,1.271,3.251c-.523.829-1.159,1.588-1.749,2.375-1.2,1.6-2.428,3.18-3.582,4.813a2.908,2.908,0,0,0-.508,1.515c-.057,2.1-.013,4.2-.026,6.3-.013,1.892-.8,2.679-2.7,2.689-2.3.013-4.593,0-6.889,0-2.632.007-3.911.929-4.739,3.41q-3.248,9.737-6.5,19.472a6.932,6.932,0,0,1-.521,1.268,2.009,2.009,0,0,1-2.376.9,1.98,1.98,0,0,1-1.423-2.01,4.7,4.7,0,0,1,.253-1.243q3.286-9.879,6.594-19.75c1.4-4.16,4.31-6.255,8.709-6.277,1.735-.009,3.47,0,5.283,0v-4.113h-58.613v4.113c1.8,0,3.559,0,5.319,0a8.833,8.833,0,0,1,6.155,2.164,8.748,8.748,0,0,1,2.462,3.847q3.378,10.107,6.73,20.223a3.792,3.792,0,0,1,.182.76,2.043,2.043,0,0,1-1.425,2.293,2,2,0,0,1-2.5-1.179c-.512-1.274-.919-2.591-1.354-3.895q-2.767-8.291-5.523-16.587c-.813-2.44-2.106-3.386-4.653-3.4-2.3-.009-4.592,0-6.889,0-2.015-.007-2.78-.777-2.788-2.8s.04-4.068-.028-6.1a3.24,3.24,0,0,0-.573-1.687c-1.646-2.288-3.379-4.515-5.048-6.787-1.052-1.433-.632-3.024.878-3.516a2.2,2.2,0,0,1,2.52,1.071c1.622,2.145,3.246,4.287,4.831,6.459a1.692,1.692,0,0,0,1.547.781c5.28-.028,10.562-.016,15.842-.016h1.063a19.239,19.239,0,0,0-.162-2.642c-.216-1.091-1.06-1.575-2.5-1.581-3.083-.012-6.167-.047-9.249.018a3.239,3.239,0,0,1-2.848-1.379c-2.881-3.658-5.877-7.226-8.7-10.925-1.852-2.423-4.274-2.737-6.948-2.247-1.978.363-3.184,2.108-3.213,4.38-.03,2.328-.008,4.657-.008,6.985q0,9.693,0,19.385c0,2.792,1.034,5.03,3.641,6.219a8.53,8.53,0,0,0,3.329.651c4.46.071,8.922.063,13.382.011a2.708,2.708,0,0,1,2.859,1.873c1.9,4.563,3.89,9.092,5.829,13.64.729,1.708.1,3.087-1.474,3.321-1.054.156-1.827-.357-2.375-1.629-1.657-3.85-3.354-7.684-4.921-11.57a1.936,1.936,0,0,0-2.19-1.466c-3.7.1-7.415-.07-11.117.06a10.682,10.682,0,0,1-11-8.844c-.012-.083-.1-.156-.15-.234Z" transform="translate(0 -485.6)" fill="#fff"/>
    <path id="Path_1605" data-name="Path 1605" d="M-11614.1-12566.887a12.842,12.842,0,0,1,2.639-5.611,10.463,10.463,0,0,1,15.572-.134,10.328,10.328,0,0,1-.116,14.266c-3.889,4.4-11.442,4.31-15.322-.124a13.1,13.1,0,0,1-2.772-5.641Zm16.766,1.342a6.255,6.255,0,0,0-6.19-6.3,6.31,6.31,0,0,0-6.375,6.239,6.371,6.371,0,0,0,6.315,6.325A6.311,6.311,0,0,0-11597.331-12565.545Z" transform="translate(0 -203.259)" fill="#fff"/>
    <path id="Path_1606" data-name="Path 1606" d="M-9983.42-12555.816a10.579,10.579,0,0,1-10.465-10.556,10.586,10.586,0,0,1,10.492-10.441,10.571,10.571,0,0,1,10.5,10.518A10.547,10.547,0,0,1-9983.42-12555.816Zm.069-16.764a6.258,6.258,0,0,0-6.3,6.188,6.31,6.31,0,0,0,6.237,6.378,6.372,6.372,0,0,0,6.327-6.314A6.312,6.312,0,0,0-9983.351-12572.58Z" transform="translate(-1540.442 -202.523)" fill="#fff"/>
    <path id="Path_1607" data-name="Path 1607" d="M-10782.534-12779.329a10.523,10.523,0,0,1-10.428,10.5,10.545,10.545,0,0,1-10.522-10.5,10.5,10.5,0,0,1,10.525-10.491A10.5,10.5,0,0,1-10782.534-12779.329Zm-10.52,6.268a6.3,6.3,0,0,0,6.336-6.273,6.352,6.352,0,0,0-6.248-6.288,6.355,6.355,0,0,0-6.335,6.3A6.3,6.3,0,0,0-10793.054-12773.062Z" transform="translate(-770.703)" fill="#fff"/>
    <path id="Path_1608" data-name="Path 1608" d="M-10632.2-11424.685h4.067v29.3h-4.067Z" transform="translate(-933.551 -1297.928)" fill="#fff"/>
    <path id="Path_1609" data-name="Path 1609" d="M-10628.355-12101.919h-4.089v-4.073h4.089Z" transform="translate(-933.322 -650.164)" fill="#fff"/>
  </g>
</svg>
