<svg xmlns="http://www.w3.org/2000/svg" width="116.659" height="88.833" viewBox="0 0 116.659 88.833">
  <g id="Group_117" data-name="Group 117" transform="translate(-872.901 -4601.84)">
    <g id="_Group_" data-name="&lt;Group&gt;" transform="translate(970.503 4601.84)">
      <path id="_Compound_Path_" data-name="&lt;Compound Path&gt;" d="M101.214-254.48H85.563a1.7,1.7,0,0,0-1.7,1.7v85.428a1.7,1.7,0,0,0,1.7,1.7h15.651a1.7,1.7,0,0,0,1.7-1.7v-85.428A1.7,1.7,0,0,0,101.214-254.48Zm-1.7,11.231H97.834a1.061,1.061,0,0,0-1.061,1.061,1.061,1.061,0,0,0,1.061,1.061h1.678v5.657h-4.24a1.061,1.061,0,0,0-1.061,1.061,1.061,1.061,0,0,0,1.061,1.061h4.24v5.62H97.834a1.061,1.061,0,0,0-1.061,1.061,1.061,1.061,0,0,0,1.061,1.061h1.678v5.62h-4.24a1.061,1.061,0,0,0-1.061,1.061,1.061,1.061,0,0,0,1.061,1.061h4.24v5.62H97.834a1.061,1.061,0,0,0-1.061,1.061,1.061,1.061,0,0,0,1.061,1.061h1.678v5.62h-4.24a1.061,1.061,0,0,0-1.061,1.061,1.061,1.061,0,0,0,1.061,1.061h4.24v5.62H97.834a1.061,1.061,0,0,0-1.061,1.061,1.061,1.061,0,0,0,1.061,1.061h1.678v5.62h-4.24a1.061,1.061,0,0,0-1.061,1.061,1.061,1.061,0,0,0,1.061,1.061h4.24v17.836H87.274v-82.018H99.52v7.826Z" transform="translate(-83.86 254.48)" fill="#fff"/>
      <path id="_Compound_Path_2" data-name="&lt;Compound Path&gt;" d="M98-71.993a3.611,3.611,0,0,0,3.607,3.607,3.611,3.611,0,0,0,3.607-3.607,3.611,3.611,0,0,0-3.607-3.607A3.611,3.611,0,0,0,98-71.993Zm5.091,0a1.485,1.485,0,0,1-1.485,1.485,1.489,1.489,0,0,1-1.065-.427,1.489,1.489,0,0,1-.445-1.057,1.489,1.489,0,0,1,1.485-1.485,1.489,1.489,0,0,1,1.059.43,1.489,1.489,0,0,1,.442,1.055Z" transform="translate(-92.07 150.619)" fill="#fff"/>
    </g>
    <g id="_Group_2" data-name="&lt;Group&gt;" transform="translate(872.901 4601.84)">
      <path id="_Compound_Path_3" data-name="&lt;Compound Path&gt;" d="M-57.5-238.657h-69.936v-14.121a1.7,1.7,0,0,0-1.7-1.7h-10.027a9.671,9.671,0,0,0-9.7,9.612v68.854a1.637,1.637,0,0,0,0,.222v.528a9.671,9.671,0,0,0,9.7,9.616H-57.5a1.7,1.7,0,0,0,1.678-1.7v-69.617A1.7,1.7,0,0,0-57.5-238.657Zm-87.957-6.211a6.261,6.261,0,0,1,6.291-6.211h8.325v66.2h-8.325a9.709,9.709,0,0,0-6.291,2.307Zm86.25,75.816h-79.955a6.261,6.261,0,0,1-6.291-6.211,6.261,6.261,0,0,1,6.291-6.211h10.027a1.7,1.7,0,0,0,1.7-1.7v-52.074h68.225Z" transform="translate(148.869 254.48)" fill="#fff"/>
      <path id="_Compound_Path_4" data-name="&lt;Compound Path&gt;" d="M-81.724-149.716H-71.6a1.061,1.061,0,0,0,.753-.309,1.061,1.061,0,0,0,.312-.752v-14.167h7.473v14.167A1.061,1.061,0,0,0-62-149.716h22.68a1.061,1.061,0,0,0,1.061-1.061v-23.058a1.057,1.057,0,0,0-.055-.277,1.068,1.068,0,0,0-.042-.109,1.061,1.061,0,0,0-.168-.247.283.283,0,0,0-.046-.059l-15.664-14.8a1.061,1.061,0,0,0-.73-.289H-66.085a1.259,1.259,0,0,0-.4.08,1.07,1.07,0,0,0-.176.109,1.006,1.006,0,0,0-.155.1l-15.626,14.787a.54.54,0,0,0-.055.071,1.057,1.057,0,0,0-.168.247,1.044,1.044,0,0,0-.042.109,1.053,1.053,0,0,0-.055.277v23.062A1.061,1.061,0,0,0-81.724-149.716Zm41.338-2.122h-8.966v-20.873h8.966v20.868ZM-55.4-187.485l13.42,12.669h-8.014l-13.42-12.669h8Zm-10.669.419,13,12.271H-79.053Zm-14.594,14.393h29.189V-151.8h-9.47v-14.167A1.061,1.061,0,0,0-62-167.032h-9.6a1.061,1.061,0,0,0-1.061,1.061V-151.8h-8v-20.906Z" transform="translate(110.485 216.821)" fill="#fff"/>
      <path id="_Path_" data-name="&lt;Path&gt;" d="M27.72-150.754a1.061,1.061,0,0,0,1.061,1.061h7.025a1.061,1.061,0,0,0,.758-.306,1.061,1.061,0,0,0,.315-.755,1.061,1.061,0,0,0-1.074-1.044H32.325l3.426-6.853H33.26V-180.61h2.491l-3.426-6.848h3.481a1.061,1.061,0,0,0,1.074-1.04,1.061,1.061,0,0,0-.308-.768,1.061,1.061,0,0,0-.766-.314H28.781a1.061,1.061,0,0,0-.758.318,1.061,1.061,0,0,0-.3.764,1.061,1.061,0,0,0,1.061,1.061h3.493l-3.426,6.853h2.491v21.959H28.848l3.426,6.853H28.781A1.061,1.061,0,0,0,27.72-150.754Z" transform="translate(46.338 216.798)" fill="#fff"/>
      <path id="_Path_2" data-name="&lt;Path&gt;" d="M-81.759-81.658A1.061,1.061,0,0,0-80.7-82.719v-3.51l6.882,3.443V-85.3H-47.3v2.516l6.882-3.443v3.51a1.061,1.061,0,0,0,1.061,1.061A1.061,1.061,0,0,0-38.3-82.719v-7.02A1.061,1.061,0,0,0-39.36-90.8a1.061,1.061,0,0,0-1.061,1.061v3.51L-47.3-89.672v2.516H-73.812v-2.516L-80.7-86.229v-3.51A1.061,1.061,0,0,0-81.759-90.8a1.061,1.061,0,0,0-1.061,1.061V-82.7A1.061,1.061,0,0,0-81.759-81.658Z" transform="translate(110.52 159.444)" fill="#fff"/>
    </g>
  </g>
</svg>
