<svg xmlns="http://www.w3.org/2000/svg" width="104.021" height="102.648" viewBox="0 0 104.021 102.648">
  <g id="Group_71" data-name="Group 71" transform="translate(18504.799 10695.045)">
    <path id="Path_1612" data-name="Path 1612" d="M-18431.441-10675.012h-1.268q-6.639,0-13.277,0c-2.463,0-3.8-1.335-3.8-3.793-.01-3.884,0-7.77,0-11.653v-1.275c-.465-.021-.848-.053-1.23-.053q-23.584-.006-47.162,0c-2.416,0-3.365.971-3.369,3.423q0,44.67,0,89.341c0,2.42.965,3.376,3.414,3.376q31.617,0,63.24,0c2.506,0,3.455-.946,3.455-3.449q0-8.31,0-16.616c0-.323-.016-.65.016-.971a1.51,1.51,0,0,1,1.553-1.485,1.535,1.535,0,0,1,1.625,1.3,3.972,3.972,0,0,1,.051.967q0,8.522,0,17.048c0,3.99-2.471,6.457-6.463,6.459q-31.837,0-63.672,0c-4,0-6.467-2.456-6.467-6.448q0-44.887,0-89.773c0-3.938,2.467-6.421,6.385-6.421q24.765-.009,49.535.034a3.608,3.608,0,0,1,2.205.829c5.83,5.243,11.594,10.56,17.4,15.828a3,3,0,0,1,1.094,2.438c-.041,3.741-.016,7.482-.016,11.222,0,.145,0,.287,0,.432-.037,1.159-.672,1.893-1.631,1.9s-1.6-.72-1.609-1.891c-.012-3.165,0-6.331-.006-9.5Zm-15.037-14.641v11.33h12.4C-18438.283-10682.157-18442.312-10685.841-18446.479-10689.652Z" transform="translate(0.002)" fill="#fff"/>
    <path id="Path_1613" data-name="Path 1613" d="M-17349.605-9761.533c-.887-.694-1.656-1.747-2.541-1.854-.773-.093-1.682.865-2.518,1.381a22.4,22.4,0,0,1-33.883-16,22.33,22.33,0,0,1,22.979-25.289,22.2,22.2,0,0,1,21.381,24.551,60.07,60.07,0,0,1-1.469,6.755l2.654,2.128c1.441-1.061,1.762-1.06,3.131.02,1.018.8,2.039,1.595,3.031,2.426a1.64,1.64,0,0,1,.373,2.373,1.624,1.624,0,0,1-2.4.146c-.771-.577-1.514-1.194-2.312-1.831-1.676,2.1-3.285,4.124-4.936,6.2a4.879,4.879,0,0,0,.439.459c3.459,2.758,6.906,5.526,10.383,8.26a4,4,0,0,0,6.607-2.31,3.833,3.833,0,0,0-1.469-3.827c-.939-.78-1.914-1.52-2.859-2.295-.975-.8-1.15-1.731-.506-2.515a1.686,1.686,0,0,1,2.49-.049c1.023.795,2.047,1.589,3.033,2.426a7.223,7.223,0,0,1,1.068,10.066,7.145,7.145,0,0,1-10.021,1.3c-4.162-3.2-8.238-6.507-12.336-9.786C-17350.234-9759.566-17350.275-9760.1-17349.605-9761.533Zm2.322-19.482a19.044,19.044,0,0,0-19.07-19.049,18.988,18.988,0,0,0-19.109,19.219,19.054,19.054,0,0,0,18.773,18.891C-17358.24-9761.88-17347.229-9768.766-17347.283-9781.016Zm-.088,11.826c-.869,1.155-1.658,2.2-2.492,3.3.795.626,1.539,1.22,2.355,1.865.879-1.1,1.7-2.129,2.572-3.224C-17345.764-9767.906-17346.537-9768.522-17347.371-9769.189Z" transform="translate(-1075.418 -859.264)" fill="#fff"/>
    <path id="Path_1614" data-name="Path 1614" d="M-18252.453-9951.144h27.066c.324,0,.648-.012.971.008,1.072.062,1.67.624,1.688,1.564a1.6,1.6,0,0,1-1.613,1.665,9.4,9.4,0,0,1-.969.017q-27.067,0-54.135,0a5.618,5.618,0,0,1-1.387-.115,1.462,1.462,0,0,1-1.152-1.7,1.446,1.446,0,0,1,1.389-1.4,10.191,10.191,0,0,1,1.186-.034Z" transform="translate(-214.694 -716.818)" fill="#fff"/>
    <path id="Path_1615" data-name="Path 1615" d="M-18252.676-8290.8h-26.961c-.357,0-.721.012-1.076-.019a1.566,1.566,0,0,1-1.58-1.572,1.617,1.617,0,0,1,1.531-1.644,6.242,6.242,0,0,1,.754-.017q27.334,0,54.672,0a4.333,4.333,0,0,1,1.07.068,1.494,1.494,0,0,1,1.246,1.646,1.468,1.468,0,0,1-1.4,1.5,9.206,9.206,0,0,1-1.186.034Q-18239.142-8290.8-18252.676-8290.8Z" transform="translate(-214.406 -2313.584)" fill="#fff"/>
    <path id="Path_1616" data-name="Path 1616" d="M-18262.248-8705.372q-8.253,0-16.5,0a6.318,6.318,0,0,1-1.186-.062,1.292,1.292,0,0,1-1.2-1.415,2.95,2.95,0,0,1,.99-1.588c.285-.25.889-.182,1.354-.182q16.611-.013,33.221-.006c.109,0,.219,0,.324,0,1.352.021,2.111.6,2.129,1.618s-.75,1.631-2.088,1.632Q-18253.728-8705.364-18262.248-8705.372Z" transform="translate(-215.507 -1914.106)" fill="#fff"/>
    <path id="Path_1617" data-name="Path 1617" d="M-18266.164-9533.45q-6.741,0-13.484,0a5.009,5.009,0,0,1-1.281-.107,1.452,1.452,0,0,1-1.115-1.629,1.433,1.433,0,0,1,1.234-1.43,6.33,6.33,0,0,1,1.18-.064q13.43,0,26.855,0a6.78,6.78,0,0,1,1.074.048,1.444,1.444,0,0,1,1.322,1.464,1.467,1.467,0,0,1-1.234,1.647,5.561,5.561,0,0,1-1.178.073Q-18259.479-9533.447-18266.164-9533.45Z" transform="translate(-214.641 -1116.191)" fill="#fff"/>
    <path id="Path_1618" data-name="Path 1618" d="M-18264.629-9119.959q-6.8,0-13.592-.008a2.353,2.353,0,0,1-1.352-.2,2.134,2.134,0,0,1-.842-1.449,2.446,2.446,0,0,1,1.031-1.436,2.529,2.529,0,0,1,1.361-.161q13.377-.012,26.75,0c.141,0,.285,0,.43,0,1.344.035,2.072.635,2.045,1.683-.025,1.013-.713,1.566-2.027,1.57C-18255.426-9119.953-18260.027-9119.96-18264.629-9119.959Z" transform="translate(-216.215 -1514.603)" fill="#fff"/>
    <path id="Path_1619" data-name="Path 1619" d="M-18266.467-10365.6c4.531,0,9.063-.008,13.592.009a2.426,2.426,0,0,1,1.438.255,2.105,2.105,0,0,1,.744,1.5,2.25,2.25,0,0,1-1.025,1.325,2.662,2.662,0,0,1-1.361.16q-13.374.009-26.752,0c-.178,0-.359,0-.537,0-1.232-.039-1.967-.68-1.937-1.689.027-.972.715-1.553,1.926-1.556Q-18273.423-10365.609-18266.467-10365.6Z" transform="translate(-214.393 -317.453)" fill="#fff"/>
    <path id="Path_1620" data-name="Path 1620" d="M-17211.121-9603c.174-6.618,5.789-13.217,12.3-14.453a1.66,1.66,0,0,1,2.109,1.162c.223.986-.326,1.715-1.549,2.052a12.44,12.44,0,0,0-9.33,9.565c-.164.657-.2,1.348-.309,2.021a1.616,1.616,0,0,1-1.77,1.487A1.682,1.682,0,0,1-17211.121-9603Z" transform="translate(-1246.585 -1038.317)" fill="#fff"/>
  </g>
</svg>
