<svg xmlns="http://www.w3.org/2000/svg" width="104.307" height="104.192" viewBox="0 0 104.307 104.192">
  <g id="Group_72" data-name="Group 72" transform="translate(16476.809 15167.835)">
    <path id="Path_1621" data-name="Path 1621" d="M-16459.479-15084.48c-3.393,0-6.609.006-9.828,0a6.962,6.962,0,0,1-7.373-7.326c-.008-7.341,0-14.681,0-22.107h3.473v1.131q0,10.418,0,20.835c0,2.645,1.355,3.991,4.014,3.994,3.436,0,6.873-.02,10.307.019a1.164,1.164,0,0,0,1.277-.843c1.135-2.735,2.338-5.441,3.473-8.176a2.08,2.08,0,0,1,2.164-1.429c3.8.029,7.6,0,11.391.016,1.605.006,2.3.891,1.977,2.453-.553,2.61-1.111,5.22-1.7,7.961h1.16q8.733,0,17.467,0c2.666,0,4.018-1.341,4.018-3.99q.006-15.138,0-30.275c0-2.564-1.385-3.933-3.965-3.934q-23.812,0-47.627,0c-2.576,0-3.953,1.374-3.959,3.94,0,1.546,0,3.09,0,4.688h-3.6a49.47,49.47,0,0,1,.5-7.174c.641-3.05,3.523-4.924,6.836-4.925q21.645-.01,43.289,0c1.629,0,3.254-.01,4.881,0a6.939,6.939,0,0,1,7.113,7.146c.014,1.623,0,3.245,0,4.935a7.339,7.339,0,0,0,2.172-.051c.494-.165.885-.76,1.2-1.243.053-.081-.5-.623-.838-.866-.551-.4-1.148-.721-1.8-1.118.688-.971,1.309-1.85,1.842-2.6a46.376,46.376,0,0,0,5.5,2.071,14.689,14.689,0,0,0,17.951-13.838c.055-2.1-.012-4.2.033-6.294a.925.925,0,0,0-.795-1.056,24.433,24.433,0,0,1-3.051-1.1,11.405,11.405,0,0,1-6.238-7.372,43.466,43.466,0,0,1-19.229,5.7v13.561a21.743,21.743,0,0,1-2.592.68c-.344.054-.742-.374-1.137-.515-3.23-1.162-5.086-3.485-5.162-6.5-.08-3.092,1.59-5.483,4.742-6.8a.487.487,0,0,0,.3-.369c-.521,0-1.043.022-1.564-.006-.951-.052-1.691-.568-1.7-1.5-.012-3.242-.369-6.507.553-9.7a15.634,15.634,0,0,1,14.863-11.353c2.17-.021,4.34-.008,6.508,0a8.1,8.1,0,0,1,6.457,3,2.1,2.1,0,0,0,1.176.617,12.15,12.15,0,0,1,10.316,12c.027,2.1.02,4.2,0,6.293a.969.969,0,0,0,.7,1.121,6.854,6.854,0,0,1,4.511,6.735,7.09,7.09,0,0,1-4.98,6.439,1.69,1.69,0,0,0-.91.972,18.134,18.134,0,0,1-7.191,9.891,1.6,1.6,0,0,0-.717,2.007,1.648,1.648,0,0,0,1.693,1.264c1.555.018,3.113-.048,4.664.022a29.508,29.508,0,0,1,5.375.457,11.8,11.8,0,0,1,8.964,10.967c.136,5.385.029,10.776.029,16.256h-3.416v-6.795h-8.71v1.11q0,5.1,0,10.2c0,2.007-.5,2.517-2.475,2.518q-10.632,0-21.264,0c-3.674,0-5.768,2.106-5.773,5.795v2.886h1.277q12.914,0,25.82,0c6.674,0,11.062-4.379,11.095-11.062,0-.319,0-.639,0-1.092h3.352a14.243,14.243,0,0,1-4.518,12.155c.988,0,1.786-.01,2.583,0,1.412.022,2.041.645,2.051,2.068.015,2.025.008,4.052,0,6.076-.006,1.693-.582,2.271-2.287,2.271q-13.89,0-27.773,0h-71.5c-2.137,0-2.6-.466-2.6-2.605,0-1.918-.012-3.834,0-5.752.012-1.42.637-2.052,2.055-2.057,3.293-.014,6.584.01,9.875-.027a1.3,1.3,0,0,0,1-.5C-16462.309-15077.81-16460.937-15081.064-16459.479-15084.48Zm83.451-15.681c0-2.062.14-4.057-.03-6.025a8.372,8.372,0,0,0-7.149-7.629c-1.8-.275-3.686-.039-5.512-.214a3.232,3.232,0,0,0-3.281,1.634,11.894,11.894,0,0,1-9.721,5.306,12.328,12.328,0,0,1-11.42-6.2,4.645,4.645,0,0,0-.811-.776l-.232.205v1.188c0,6.98.043,13.962-.039,20.942a6.765,6.765,0,0,1-.895,3.6c-1.145,1.665-.652,3.352-.709,5.122,2.459-2.9,5.678-3.3,9.162-3.235,5.783.105,11.57.028,17.355.028h1.215v-19.022h3.449v5.078Zm-.012,29.646h-97.082v3.344h97.082Zm-66.334-24.384c-2.689,0-5.252.043-7.814-.024a1.352,1.352,0,0,0-1.492,1.008c-2.658,6.284-5.359,12.551-8.043,18.823-.129.3-.227.623-.352.958h13.254C-16445.34-15081.043-16443.875-15087.889-16442.373-15094.9Zm21.268-53.92a2.428,2.428,0,0,0,.395.083,39.2,39.2,0,0,0,21.563-5.813,1.406,1.406,0,0,0,.564-1c.055-1.806-.059-3.621.055-5.422a2.6,2.6,0,0,0-1.576-2.7,5.951,5.951,0,0,0-2.359-.655c-2.275-.085-4.555-.061-6.832-.016a11.83,11.83,0,0,0-6.945,2.416,8.072,8.072,0,0,0-.705.65c.047.075.092.15.139.226l5.4-1.259c.467.958.949,1.942,1.457,2.985a9.163,9.163,0,0,1-1.457.551c-2.59.464-5.187.881-7.777,1.337-.316.055-.789.166-.879.383-.375.869-.625,1.79-.945,2.764,5.6-.355,11.875-2.488,18.012-6.129a9.06,9.06,0,0,0,.953,1.216,14.179,14.179,0,0,0,1.555,1.121c-6.367,4.834-13.449,6.289-20.617,7.455Zm26.422,34.21c-.824-1.3-1.6-2.518-2.34-3.679a45.835,45.835,0,0,1-5.1.761,43.673,43.673,0,0,1-5-.293c-.895,1.16-1.713,2.224-2.564,3.331C-16406.605-15109.379-16398.258-15108.913-16394.684-15114.608Zm-.371-45.981c0,2.5-.145,5,.035,7.479a7.748,7.748,0,0,0,6.863,6.99c0-2.206.01-4.41-.01-6.614a6.89,6.89,0,0,0-.186-1.285C-16389.031-15157.37-16391.969-15160.259-16395.055-15160.59Zm-30.029,76.11c-3.318,0-6.422-.01-9.525.017a.985.985,0,0,0-.758.392c-.441.966-.8,1.972-1.211,3.023.316.019.5.036.672.039,2.223.039,2.625.451,2.625,2.688,0,1.4,0,2.791,0,4.181h3.406a2.087,2.087,0,0,0,.059-.286q.009-2,.008-4.009c0-2.086.439-2.514,2.521-2.59a1.255,1.255,0,0,0,.947-.415C-16425.879-15082.366-16425.537-15083.353-16425.084-15084.479Zm-1.211,10.332h8.582v-3.32h-8.582Zm-10.525.049v-3.358h-5.738c-.24,1.149-.465,2.227-.7,3.358Zm14.133-6.965h3.236v-3.734c-.744.249-1.668.272-1.979.722A14.693,14.693,0,0,0-16422.687-15081.063Zm1.5-60.17c-2.24,1.673-2.2,4.551,0,5.713Zm36.586.042v5.7C-16382.4-15136.768-16382.388-15139.654-16384.6-15141.191Zm-57.219,60.32c.635-.174,1.365-.159,1.529-.457a25.624,25.624,0,0,0,1.277-3.095h-2.049C-16441.3-15083.292-16441.531-15082.212-16441.818-15080.871Z" fill="#fff"/>
    <path id="Path_1622" data-name="Path 1622" d="M-14874.556-14540.088a3.482,3.482,0,0,1-3.478-3.43,3.485,3.485,0,0,1,3.511-3.506,3.5,3.5,0,0,1,3.423,3.486A3.483,3.483,0,0,1-14874.556-14540.088Z" transform="translate(-1536.144 -596.492)" fill="#fff"/>
    <path id="Path_1623" data-name="Path 1623" d="M-14516.618-14543.539a3.485,3.485,0,0,1-3.4,3.508,3.5,3.5,0,0,1-3.532-3.375,3.48,3.48,0,0,1,3.455-3.559A3.481,3.481,0,0,1-14516.618-14543.539Z" transform="translate(-1876.739 -596.548)" fill="#fff"/>
    <path id="Path_1624" data-name="Path 1624" d="M-14768.078-14309.752c.6-.922,1.2-1.847,1.826-2.812a8.07,8.07,0,0,0,8.556,0l1.827,2.811A10.894,10.894,0,0,1-14768.078-14309.752Z" transform="translate(-1641.792 -821.766)" fill="#fff"/>
    <path id="Path_1625" data-name="Path 1625" d="M-16295.045-13966.079v-3.338h6.808v3.338Z" transform="translate(-174.643 -1151.47)" fill="#fff"/>
    <path id="Path_1626" data-name="Path 1626" d="M-16028.787-13969.58h6.8v3.352h-6.8Z" transform="translate(-430.47 -1151.314)" fill="#fff"/>
    <path id="Path_1627" data-name="Path 1627" d="M-15755.827-13965.969h-6.82v-3.369h6.82Z" transform="translate(-686.184 -1151.547)" fill="#fff"/>
    <path id="Path_1628" data-name="Path 1628" d="M-15489.822-13965.859h-6.811v-3.359h6.811Z" transform="translate(-941.778 -1151.661)" fill="#fff"/>
    <path id="Path_1629" data-name="Path 1629" d="M-15232.073-13965.518v-3.3h6.848v3.3Z" transform="translate(-1195.973 -1152.046)" fill="#fff"/>
    <path id="Path_1630" data-name="Path 1630" d="M-14810.121-13577.425c.533-.922,1.07-1.849,1.663-2.876a15.865,15.865,0,0,0,14.637.525l1.442,2.966C-14797.057-13573.957-14805.172-13574.087-14810.121-13577.425Z" transform="translate(-1601.396 -1525.343)" fill="#fff"/>
  </g>
</svg>
