<svg xmlns="http://www.w3.org/2000/svg" width="20" height="40" viewBox="0 0 20 40">
  <path id="military_tech_FILL0_wght400_GRAD0_opsz48" d="M14,4H34V20.65a3.978,3.978,0,0,1-.575,2.1A4.527,4.527,0,0,1,31.85,24.3L24.8,28.4l1.3,4.85h6.7L27.35,37.3l2.1,6.7L24,39.95,18.5,44l2.1-6.7-5.45-4.05H21.9l1.25-4.85-7-4.1a4.527,4.527,0,0,1-1.575-1.55A3.978,3.978,0,0,1,14,20.65Zm3,3V20.65a1.061,1.061,0,0,0,.225.65,2.1,2.1,0,0,0,.675.55l4.8,2.65V7ZM31,7H25.7V24.5l4.4-2.65a2.1,2.1,0,0,0,.675-.55A1.061,1.061,0,0,0,31,20.65ZM24.2,16.15ZM22.7,15.75ZM25.7,15.75Z" transform="translate(-14 -4)"/>
</svg>
