<svg xmlns="http://www.w3.org/2000/svg" width="48" height="38" viewBox="0 0 48 38">
  <path id="diversity_1_FILL0_wght400_GRAD0_opsz48" d="M2.55,27.8A17.942,17.942,0,0,1,.625,23.475,15.432,15.432,0,0,1,0,19.2,12.73,12.73,0,0,1,3.85,9.85,12.73,12.73,0,0,1,13.2,6a14.125,14.125,0,0,1,5.975,1.3A14.462,14.462,0,0,1,24,10.85,14.462,14.462,0,0,1,28.825,7.3,14.125,14.125,0,0,1,34.8,6a12.73,12.73,0,0,1,9.35,3.85A12.73,12.73,0,0,1,48,19.2a15.171,15.171,0,0,1-.625,4.25,18.075,18.075,0,0,1-1.925,4.3,5.45,5.45,0,0,0-1.125-1.025A7.849,7.849,0,0,0,43,26a16.171,16.171,0,0,0,1.5-3.45A11.832,11.832,0,0,0,45,19.2a9.837,9.837,0,0,0-2.975-7.225A9.837,9.837,0,0,0,34.8,9a10.346,10.346,0,0,0-5.425,1.625A21.834,21.834,0,0,0,24,15.55a21.834,21.834,0,0,0-5.375-4.925A10.346,10.346,0,0,0,13.2,9a9.837,9.837,0,0,0-7.225,2.975A9.837,9.837,0,0,0,3,19.2a11.832,11.832,0,0,0,.5,3.35A16.172,16.172,0,0,0,5,26a6.941,6.941,0,0,0-1.325.75A6.1,6.1,0,0,0,2.55,27.8ZM0,44V41.35A3.569,3.569,0,0,1,2.1,38.2,10.8,10.8,0,0,1,7.5,37q.65,0,1.2.025a8.233,8.233,0,0,1,1.1.125,8.141,8.141,0,0,0-.8,3.6V44Zm12,0V40.75q0-3.25,3.325-5.25A16.67,16.67,0,0,1,24,33.5a16.643,16.643,0,0,1,8.7,2A5.975,5.975,0,0,1,36,40.75V44Zm27,0V40.75a9.556,9.556,0,0,0-.175-1.875,7.494,7.494,0,0,0-.575-1.725,8.233,8.233,0,0,1,1.1-.125Q39.9,37,40.5,37a10.767,10.767,0,0,1,5.425,1.2A3.571,3.571,0,0,1,48,41.35V44ZM24,36.5a15.09,15.09,0,0,0-6.5,1.2Q15,38.9,15,40.75V41H33v-.3q0-1.8-2.475-3A15.057,15.057,0,0,0,24,36.5Zm-16.5-1a3.372,3.372,0,0,1-2.475-1.025,3.5,3.5,0,0,1,0-4.95A3.372,3.372,0,0,1,7.5,28.5a3.5,3.5,0,1,1,0,7Zm33,0a3.5,3.5,0,1,1,2.475-1.025A3.372,3.372,0,0,1,40.5,35.5ZM24,32a5.975,5.975,0,0,1-6-6,5.763,5.763,0,0,1,1.75-4.275A5.829,5.829,0,0,1,24,20a5.893,5.893,0,0,1,6,6,5.829,5.829,0,0,1-1.725,4.25A5.763,5.763,0,0,1,24,32Zm0-9a2.937,2.937,0,0,0-2.125.85,3.023,3.023,0,0,0,4.275,4.275A2.988,2.988,0,0,0,24,23ZM24,26ZM24,41Z" transform="translate(0 -6)"/>
</svg>
