<svg xmlns="http://www.w3.org/2000/svg" width="44" height="32" viewBox="0 0 44 32">
  <path id="diversity_3_FILL0_wght400_GRAD0_opsz48" d="M2,40V32a3.372,3.372,0,0,1,1.025-2.475A3.372,3.372,0,0,1,5.5,28.5h7.05a3.333,3.333,0,0,1,1.625.425A4.044,4.044,0,0,1,15.5,30.1a9.921,9.921,0,0,0,3.7,3.25A10.49,10.49,0,0,0,32.55,30.1a4.137,4.137,0,0,1,1.3-1.175,3.194,3.194,0,0,1,1.6-.425H42.5A3.5,3.5,0,0,1,46,32v8H33V34.05a12.979,12.979,0,0,1-4.125,2.55A13.387,13.387,0,0,1,24,37.5a13.19,13.19,0,0,1-4.85-.9A13.673,13.673,0,0,1,15,34.05V40Zm22-8.5a7.365,7.365,0,0,1-3.375-.825A6.953,6.953,0,0,1,18,28.4a6.552,6.552,0,0,0-1.925-1.85,7.085,7.085,0,0,0-2.425-.95,9.546,9.546,0,0,1,4.55-2.3,23.279,23.279,0,0,1,5.8-.8,23.57,23.57,0,0,1,5.825.8A9.566,9.566,0,0,1,34.4,25.6a7.085,7.085,0,0,0-2.425.95A6.552,6.552,0,0,0,30.05,28.4a6.953,6.953,0,0,1-2.625,2.275A7.466,7.466,0,0,1,24,31.5ZM8,25a5.29,5.29,0,0,1-3.875-1.625,5.463,5.463,0,0,1,0-7.775A5.331,5.331,0,0,1,8,14a5.307,5.307,0,0,1,3.9,1.6,5.523,5.523,0,0,1,0,7.775A5.266,5.266,0,0,1,8,25Zm32,0a5.549,5.549,0,0,1-5.5-5.5,5.266,5.266,0,0,1,1.625-3.9A5.488,5.488,0,0,1,45.5,19.5a5.331,5.331,0,0,1-1.6,3.875A5.266,5.266,0,0,1,40,25ZM24,19a5.29,5.29,0,0,1-3.875-1.625A5.29,5.29,0,0,1,18.5,13.5a5.266,5.266,0,0,1,1.625-3.9,5.523,5.523,0,0,1,7.775,0,5.307,5.307,0,0,1,1.6,3.9,5.331,5.331,0,0,1-1.6,3.875A5.266,5.266,0,0,1,24,19Z" transform="translate(-2 -8)"/>
</svg>
