<svg xmlns="http://www.w3.org/2000/svg" width="118.553" height="79.682" viewBox="0 0 118.553 79.682">
  <g id="Group_26" data-name="Group 26" transform="translate(-152.409 -108.439)">
    <g id="Group_23" data-name="Group 23" transform="translate(152.409 116.274)">
      <path id="Path_5" data-name="Path 5" d="M349.283,129.624c.04.066.076.134.119.2l11.052,16.072c.048.07.094.14.145.216-.033.053-.057.1-.088.142-1.423,1.914-2.88,3.8-4.429,5.615-.186.218-.376.432-.564.649l-.108.122a.47.47,0,0,1-.176-.2q-1.022-1.481-2.041-2.965-6.73-9.787-13.46-19.575c-.061-.088-.109-.185-.163-.277Z" transform="translate(-270.351 -129.624)" fill="#fff"/>
      <path id="Path_6" data-name="Path 6" d="M424.408,228.618c-.206.268-.4.543-.618.8a10.114,10.114,0,0,1-3.247,2.656,8.26,8.26,0,0,1-2.138.748,3.033,3.033,0,0,1-.706.076l-12.522-18.208c0-.027.006-.034.008-.041a.065.065,0,0,1,.011-.02q1.963-1.963,3.773-4.068c.555-.646,1.094-1.305,1.641-1.958a.168.168,0,0,1,.035-.029.175.175,0,0,1,.034-.01c.042.058.089.117.132.18l13.431,19.529c.057.082.111.165.166.248Z" transform="translate(-311.693 -179.371)" fill="#fff"/>
      <path id="Path_7" data-name="Path 7" d="M278.27,272.094a2.451,2.451,0,0,0-.265-.081,3.294,3.294,0,0,1-2.155-1.452,3.449,3.449,0,0,1-.568-2.43,3.413,3.413,0,0,1,2.394-2.863,3.358,3.358,0,0,1,3.669,1.072,3.428,3.428,0,0,1,.793,2.68,3.372,3.372,0,0,1-1.57,2.535,3.016,3.016,0,0,1-1.087.449,2.8,2.8,0,0,0-.283.09Zm2.631-3.481a5.9,5.9,0,0,0-.081-.6,2.161,2.161,0,0,0-2.688-1.61,2.067,2.067,0,0,0-1.485,1.434,2.56,2.56,0,0,0-.084,1.148,1.957,1.957,0,0,0,.436,1.033,2.172,2.172,0,0,0,1.715.827,2.046,2.046,0,0,0,1.615-.726A2.264,2.264,0,0,0,280.9,268.613Z" transform="translate(-229.822 -214.996)" fill="#fff"/>
      <path id="Path_8" data-name="Path 8" d="M275.8,176.611c-.085.016-.145.033-.206.038-.254.021-.509.04-.764.059-.309.023-.617.05-.926.068-.294.016-.588.03-.882.03-.619,0-1.239,0-1.858-.015a13.882,13.882,0,0,1-1.618-.139.813.813,0,0,1-.119-.035.322.322,0,0,1-.02-.032.061.061,0,0,1-.006-.023q0-22.4-.006-44.807c0-.062,0-.124,0-.186a.361.361,0,0,1,.013-.068.216.216,0,0,1,.014-.031c.1-.014.207-.035.314-.045.393-.038.786-.069,1.179-.109.362-.036.723-.081,1.084-.119s.739-.074,1.109-.111l.739-.073c.208-.02.416-.041.625-.056.3-.022.6-.039.9-.058l1.089-.07c.038,0,.077-.007.116-.008,1.122-.036,2.245-.082,3.368-.04.534.02,1.067.045,1.6.082.394.027.786.074,1.178.119s.783.1,1.173.153a18.628,18.628,0,0,1,5.506,1.577,13.487,13.487,0,0,1,2.652,1.656,12.385,12.385,0,0,1,2.738,3.163,10.871,10.871,0,0,1,1.34,3.369,15.714,15.714,0,0,1,.34,2.527c.027.48.04.959.031,1.439a11.828,11.828,0,0,1-1.08,4.786,14.46,14.46,0,0,1-4.851,5.817,22.864,22.864,0,0,1-3.368,2c-.089.043-.177.091-.274.141a.7.7,0,0,0,.132.225l3.335,4.836,4.154,6.021c.048.069.091.141.142.222-.061.029-.108.054-.156.074a13.157,13.157,0,0,1-2.559.733,7.787,7.787,0,0,1-1.9.1,5.311,5.311,0,0,1-2.355-.713,1.082,1.082,0,0,1-.351-.328q-3.158-4.578-6.321-9.153-1.28-1.853-2.562-3.706a.45.45,0,0,1-.108-.418.409.409,0,0,1,.2-.077,28.505,28.505,0,0,0,4.174-1.4,14.1,14.1,0,0,0,3.524-2.13,10.679,10.679,0,0,0,2.364-2.754,6.89,6.89,0,0,0,.847-2.271,10.345,10.345,0,0,0,.153-2.312,11.7,11.7,0,0,0-.2-1.844,7.819,7.819,0,0,0-1.256-3.069,6.964,6.964,0,0,0-1.831-1.76,9.388,9.388,0,0,0-2.868-1.28,13.007,13.007,0,0,0-1.8-.337,17.6,17.6,0,0,0-2.5-.094c-.511.012-1.021.031-1.531.064-.432.028-.863.079-1.294.12a2.516,2.516,0,0,0-.541.072c-.006.049-.016.1-.018.152,0,.085,0,.17,0,.256q0,19.7,0,39.4C275.8,176.358,275.8,176.473,275.8,176.611Z" transform="translate(-226.128 -130.343)" fill="#fff"/>
      <path id="Path_9" data-name="Path 9" d="M167.094,132.394a26.341,26.341,0,0,1,7.3,0c.073.058.077.149.1.228q.682,2.1,1.359,4.192l5.592,17.256,5.093,15.711,2.4,7.414c.028.087.051.176.08.276a.5.5,0,0,1-.109.045c-.483.065-.966.132-1.453.155-.526.025-1.051.058-1.577.074-.682.021-1.362-.018-2.042-.065-.472-.033-.939-.09-1.407-.155-.06-.008-.119-.027-.186-.043-.151-.5-.3-1-.45-1.493s-.3-.992-.45-1.487-.3-.993-.446-1.489-.3-.977-.444-1.465-.3-.992-.448-1.489-.294-.993-.448-1.488-.287-.993-.456-1.484h-17.1c-.186.572-.346,1.152-.517,1.729s-.342,1.157-.513,1.735l-.512,1.735L159.962,174q-.256.867-.512,1.735c-.171.578-.342,1.155-.516,1.742a1.265,1.265,0,0,1-.179.046c-.561.062-1.122.141-1.685.177a16.807,16.807,0,0,1-2.2.03c-.386-.026-.774-.03-1.159-.066-.408-.037-.813-.1-1.22-.153a.225.225,0,0,1-.061-.028c-.007-.007-.015-.013-.016-.019a.041.041,0,0,1,0-.022q7.32-22.488,14.64-44.975A.45.45,0,0,1,167.094,132.394Zm10.318,29.094c-.03-.116-.048-.205-.075-.293q-1.239-4.134-2.479-8.266l-2.992-9.977-1.258-4.2a.6.6,0,0,0-.084-.2c-.029.085-.05.143-.067.2q-.993,3.335-1.985,6.67-1.965,6.616-3.93,13.231l-.785,2.647c-.017.058-.05.115-.01.185Z" transform="translate(-152.409 -131.209)" fill="#fff"/>
      <path id="Path_10" data-name="Path 10" d="M336.646,272.17a7.781,7.781,0,0,1-1.213.006c-.083-.33-.119-.675-.183-1.014s-.112-.672-.168-1.007-.112-.687-.176-1.029-.1-.671-.193-1.049c-.151.375-.25.714-.365,1.047s-.233.689-.349,1.033l-.342,1.011-.338,1.005a7.262,7.262,0,0,1-1.132,0c-.021-.058-.046-.122-.068-.186q-.6-1.816-1.21-3.631c-.028-.083-.029-.184-.125-.255-.119.692-.232,1.371-.353,2.048s-.226,1.354-.358,2.022a7.953,7.953,0,0,1-1.217,0c.015-.26,1.074-6.38,1.139-6.6a8.626,8.626,0,0,1,1.236,0l1.506,4.541a.238.238,0,0,0,.092-.155l1.058-3.144q.181-.539.363-1.077c.02-.058.043-.115.063-.168a8.913,8.913,0,0,1,1.227.009c.108.539.186,1.089.282,1.636s.189,1.114.282,1.67.187,1.1.276,1.648S336.567,271.621,336.646,272.17Z" transform="translate(-263.597 -215.278)" fill="#fff"/>
      <path id="Path_11" data-name="Path 11" d="M333,242.262c.032.038.058.065.08.1l3.1,4.486a.217.217,0,0,1-.175.069q-.763.055-1.527.108c-1.043.07-2.088.057-3.132.037-.44-.008-.88-.047-1.32-.076-.247-.016-.493-.04-.74-.06-.046,0-.092-.009-.139-.011a.319.319,0,0,1-.262-.162q-.984-1.435-1.976-2.864c-.029-.043-.053-.09-.092-.155l.318-.025c.092-.008.185-.018.277-.024a13.37,13.37,0,0,0,1.653-.219,19.507,19.507,0,0,0,3.741-1.129C332.863,242.305,332.928,242.286,333,242.262Z" transform="translate(-262.309 -200.604)" fill="#fff"/>
      <path id="Path_12" data-name="Path 12" d="M385.95,267.959v2.111c0,.7,0,1.391,0,2.1a1.666,1.666,0,0,1-.428.023c-.139,0-.279,0-.418,0a2.156,2.156,0,0,1-.425-.017c0-.064-.007-.116-.008-.168-.026-1.931-.013-6.185.019-6.428a6.085,6.085,0,0,1,1.211-.018l2.784,4.27a.432.432,0,0,0,.041-.1c0-.077,0-.155,0-.232q0-1.823,0-3.646c0-.092,0-.184.007-.271a6.612,6.612,0,0,1,1.247-.019c.007.04.018.083.022.126s0,.093,0,.139q0,3.042,0,6.084c0,.084,0,.168-.007.247a6.271,6.271,0,0,1-1.228.02l-.55-.842-.558-.855-.545-.836c-.186-.285-.37-.572-.559-.855s-.358-.572-.56-.842Z" transform="translate(-298.763 -215.271)" fill="#fff"/>
      <path id="Path_13" data-name="Path 13" d="M156.572,272.173a.9.9,0,0,1-.015-.114q0-3.214.005-6.429a.241.241,0,0,1,.027-.071c.06,0,.121-.008.182-.009.487,0,.975,0,1.463,0a6.964,6.964,0,0,1,1.313.132,2.535,2.535,0,0,1,1.584,1.011,3.464,3.464,0,0,1,.662,1.637,4.16,4.16,0,0,1-.1,1.724,2.967,2.967,0,0,1-1.053,1.6,2.508,2.508,0,0,1-1.281.491,12.5,12.5,0,0,1-1.321.052q-.615,0-1.23,0A.537.537,0,0,1,156.572,272.173Zm1.278-1.225c.071.005.132.014.193.013.3-.006.6-.006.9-.025a2.856,2.856,0,0,0,.478-.085,1.221,1.221,0,0,0,.682-.454,1.961,1.961,0,0,0,.338-.656,3.119,3.119,0,0,0,.094-1.035,2.236,2.236,0,0,0-.148-.724,1.639,1.639,0,0,0-1.009-1.022,3.7,3.7,0,0,0-.448-.116,4.546,4.546,0,0,0-.948-.05c-.044,0-.089.007-.129.01C157.827,267,157.82,270.654,157.85,270.948Z" transform="translate(-155.023 -215.279)" fill="#fff"/>
      <path id="Path_14" data-name="Path 14" d="M365.79,265.579a7.368,7.368,0,0,1,0,1.176.441.441,0,0,1-.249.029c-.6,0-1.208,0-1.812,0-.084,0-.169,0-.254.006a.958.958,0,0,0-.034.4c-.006.124,0,.248,0,.372v.383a.36.36,0,0,0,.261.047c.612,0,1.223,0,1.835,0a.683.683,0,0,1,.246.019,6.449,6.449,0,0,1,0,1.2c-.064,0-.131.012-.2.012h-2.117a.428.428,0,0,0-.027.1q0,.766,0,1.533a.343.343,0,0,0,.016.069.364.364,0,0,0,.226.028q.918,0,1.835,0h.258a.369.369,0,0,1,.031.1c0,.371,0,.743,0,1.107-.063.068-.137.047-.2.047-.534,0-1.069,0-1.6,0h-1.8a1.4,1.4,0,0,1-.024-.142c0-.054,0-.108,0-.163q0-3.02,0-6.039c0-.091,0-.183,0-.252a.316.316,0,0,1,.034-.037.04.04,0,0,1,.021-.007l3.414-.006a.92.92,0,0,1,.115.011C365.778,265.564,365.784,265.573,365.79,265.579Z" transform="translate(-284.6 -215.281)" fill="#fff"/>
      <path id="Path_15" data-name="Path 15" d="M184.89,266.786v1.162a.374.374,0,0,0,.251.037c.611,0,1.223,0,1.834,0a.493.493,0,0,1,.247.025,6.4,6.4,0,0,1,0,1.192,3.833,3.833,0,0,1-.453.01c-.155,0-.31,0-.465,0h-1.4a.39.39,0,0,0-.027.094q0,.778,0,1.555a.222.222,0,0,0,.014.051c.064.047.143.027.218.027h1.858c.083,0,.167.006.245.009a6.613,6.613,0,0,1,.011,1.211.088.088,0,0,1-.016.017.045.045,0,0,1-.022.006l-3.343.008c-.054,0-.108,0-.162-.006a.124.124,0,0,1-.04-.018.086.086,0,0,1-.017-.016.052.052,0,0,1,0-.023q0-3.169-.007-6.338c0-.054,0-.108,0-.162a.148.148,0,0,1,.01-.045c0-.006.01-.01.017-.017.173-.028,3.293-.036,3.578-.007a2.668,2.668,0,0,1,.022.591c.006.193,0,.386,0,.567-.065.075-.138.057-.2.057-.395,0-.79,0-1.184,0h-.72C185.066,266.78,184.989,266.783,184.89,266.786Z" transform="translate(-172.076 -215.276)" fill="#fff"/>
      <path id="Path_16" data-name="Path 16" d="M236.73,269.219h-2.314a.38.38,0,0,0-.028.093q0,.778,0,1.555a.217.217,0,0,0,.013.048c.064.054.145.031.219.031.619,0,1.238,0,1.857,0,.084,0,.167.006.259.009a1.834,1.834,0,0,1,.018.4c0,.139,0,.279,0,.418s0,.26,0,.4a.933.933,0,0,1-.124.018h-3.367a.912.912,0,0,1-.1-.008.247.247,0,0,1-.032-.03.05.05,0,0,1-.005-.022c0-.07-.007-.139-.007-.209q0-3.146,0-6.291a.148.148,0,0,1,.01-.045c0-.007.01-.011.026-.028a.446.446,0,0,1,.076-.011h3.49a2.387,2.387,0,0,1,.026.6,3.717,3.717,0,0,1-.011.592.466.466,0,0,1-.26.033c-.6,0-1.208,0-1.811,0-.084,0-.169,0-.249.006a5.507,5.507,0,0,0-.021,1.166c.074.055.162.033.244.033.611,0,1.223,0,1.834,0a.621.621,0,0,1,.247.021A6.322,6.322,0,0,1,236.73,269.219Z" transform="translate(-203.272 -215.281)" fill="#fff"/>
      <path id="Path_17" data-name="Path 17" d="M208.317,272.192c-.412.005-.813,0-1.225,0-.212-.557-.4-1.112-.6-1.664s-.392-1.107-.589-1.661-.389-1.092-.581-1.639-.4-1.1-.584-1.66a11.456,11.456,0,0,1,1.282-.011.717.717,0,0,1,.113.267q.743,2.086,1.481,4.174c.023.064.048.128.081.218a4.768,4.768,0,0,0,.259-.665c.085-.224.163-.451.244-.676l.236-.654.244-.676q.118-.327.235-.655l.242-.677c.078-.218.158-.435.234-.647a9.291,9.291,0,0,1,1.289,0,.6.6,0,0,1-.018.087Q209.495,268.921,208.317,272.192Z" transform="translate(-185.388 -215.277)" fill="#fff"/>
      <path id="Path_18" data-name="Path 18" d="M307.9,269.416v.923c0,.31,0,.619,0,.929s.008.6-.007.912a2.289,2.289,0,0,1-.423.016c-.132,0-.263,0-.395,0l-.4-.005a.254.254,0,0,1-.028-.033.045.045,0,0,1-.006-.022q0-3.215-.006-6.43a.873.873,0,0,1,.011-.115c0-.006.009-.011.027-.032.031,0,.075-.009.12-.009.518,0,1.037-.008,1.556.007a5.067,5.067,0,0,1,.852.093,1.613,1.613,0,0,1,1.3,1.209,2.207,2.207,0,0,1,.024,1.147,1.649,1.649,0,0,1-.72,1.017,1.977,1.977,0,0,1-.978.33c-.27.018-.541.029-.811.043C307.986,269.4,307.956,269.406,307.9,269.416Zm.024-1.267c.2,0,.4.006.587,0a2.443,2.443,0,0,0,.366-.045.537.537,0,0,0,.383-.273.712.712,0,0,0,.008-.688.6.6,0,0,0-.419-.3,3.448,3.448,0,0,0-.806-.047.694.694,0,0,0-.125.02A10.346,10.346,0,0,0,307.923,268.149Z" transform="translate(-249.594 -215.278)" fill="#fff"/>
      <path id="Path_19" data-name="Path 19" d="M414.588,265.564v1.218a1.386,1.386,0,0,1-.16.02c-.271,0-.541,0-.812,0-.068,0-.136.006-.219.01,0,.094-.01.177-.01.26q0,2.205,0,4.41c0,.186,0,.371,0,.557,0,.045-.006.09-.009.132a.333.333,0,0,1-.077.023q-.546,0-1.091,0a.62.62,0,0,1-.093-.014.562.562,0,0,1-.022-.253q0-1.37,0-2.739,0-1.056,0-2.113c0-.083-.005-.167-.008-.263-.387-.031-.764.006-1.13-.021-.014-.028-.027-.041-.027-.054q0-.51-.007-1.021c0-.045.007-.091.011-.146a.679.679,0,0,1,.114-.019h3.413C414.492,265.553,414.53,265.559,414.588,265.564Z" transform="translate(-315.311 -215.281)" fill="#fff"/>
      <path id="Path_20" data-name="Path 20" d="M258.735,271.011v1.177a.858.858,0,0,1-.135.023h-2.834a.833.833,0,0,1-.1-.009.25.25,0,0,1-.03-.03.045.045,0,0,1-.006-.022q0-3.194-.006-6.387c0-.054,0-.108.007-.158.017-.014.028-.032.04-.032.394,0,.788,0,1.2,0a1.143,1.143,0,0,1,.024.132c0,.07,0,.139,0,.209q0,2.393,0,4.785c0,.091,0,.183.008.287.074.006.133.014.193.014h1.394C258.566,271,258.641,271.007,258.735,271.011Z" transform="translate(-217.453 -215.294)" fill="#fff"/>
    </g>
    <g id="Group_25" data-name="Group 25" transform="translate(164.702 108.439)">
      <g id="Group_24" data-name="Group 24" transform="translate(0 0)">
        <path id="Path_21" data-name="Path 21" d="M384.529,119.686a1.168,1.168,0,0,1-.379-.26q-.761-.682-1.525-1.36c-.081-.072-.161-.145-.244-.215a.2.2,0,0,0-.317.047c-.073.1-.141.2-.2.309q-2.442,4.056-4.882,8.114c-.479.8-.983,1.576-1.5,2.348-1.4,2.1-2.792,4.2-4.208,6.289-.66.973-1.358,1.92-2.054,2.868q-3.063,4.176-6.405,8.133a99.356,99.356,0,0,1-7.23,7.728,56.881,56.881,0,0,1-5.413,4.595,34.674,34.674,0,0,1-3.732,2.428c-.514.286-1.038.551-1.569.8a12.507,12.507,0,0,1-2,.744,22.755,22.755,0,0,1-2.9.615,24.425,24.425,0,0,1-4.214.2,15.312,15.312,0,0,1-2.483-.306c-.106-.021-.209-.055-.313-.086a1.485,1.485,0,0,1-.321-.167c-.048-.029.077.012.4.074.28.026.482.042.744.059.216.014.432.038.648.047,1.222.046,2.468.018,3.69-.029.479-.018.933-.044,1.412-.082a.968.968,0,0,0,.239-.044c.02-.009,0-.072-.01-.092a.6.6,0,0,0-.094-.154c-.3-.434-.6-.866-.9-1.3-.061-.088-.129-.2-.18-.29a1.688,1.688,0,0,1,.2-.132c.308-.144.615-.292.924-.433.536-.244,1.054-.52,1.562-.815,1.835-1.064,3.619-2.207,5.342-3.444a52.079,52.079,0,0,0,4.1-3.345c1.787-1.581,3.464-3.274,5.112-5,.91-.951,1.786-1.932,2.641-2.932,1.187-1.388,2.385-2.767,3.532-4.189.534-.662,1.046-1.343,1.556-2.024q1.782-2.378,3.552-4.765c.322-.435.627-.884.933-1.33.622-.906,1.235-1.817,1.858-2.722q1.645-2.39,3.189-4.847,2.748-4.359,5.508-8.709c.058-.092.117-.182.174-.275.138-.227.1-.3-.152-.322l-2.357-.213a.817.817,0,0,1-.136-.027.051.051,0,0,1-.026-.037c0-.028-.013-.069,0-.083a2.971,2.971,0,0,1,.241-.216c2.134-1.693,4.261-3.394,6.441-5.028.446-.334.886-.676,1.328-1.014a3.57,3.57,0,0,0,.286-.236c.027-.026.024-.083.035-.126.028.02.094-.047.094.047Q384.528,114.088,384.529,119.686Z" transform="translate(-278.269 -108.439)" fill="#f8bc15"/>
        <path id="Path_22" data-name="Path 22" d="M294.666,308.709l-.456-1.049a.262.262,0,0,1,.2-.13c.166-.038.332-.071.5-.115a1.3,1.3,0,0,0,.258-.1.938.938,0,0,0,.521-.773,2.966,2.966,0,0,0,.011-.325q0-1.3,0-2.6c0-.062,0-.124,0-.186-.006-.135-.06-.194-.2-.2-.169-.01-.34-.017-.51-.013a.885.885,0,0,0-.877.8,1.979,1.979,0,0,0,0,.694.905.905,0,0,0,.7.78,2.269,2.269,0,0,0,.319.052c.092.01.185.007.278.013a.1.1,0,0,1,.072.138c-.011.029-.022.058-.034.086-.095.212-.194.422-.284.635-.077.182-.156.218-.319.2a2.8,2.8,0,0,1-.594-.1,1.994,1.994,0,0,1-1.356-1.352,2.452,2.452,0,0,1-.033-1.42,2.125,2.125,0,0,1,1.539-1.53,2.353,2.353,0,0,1,.733-.1,6,6,0,0,1,.925.057c.137.024.278.024.415.046a3.452,3.452,0,0,1,.406.088.142.142,0,0,1,.082.1,3.172,3.172,0,0,1,.016.37c0,.743,0,1.486,0,2.229,0,.139.009.278.015.417a.137.137,0,0,0,.125.114c.371,0,.742,0,1.113,0a.148.148,0,0,0,.145-.149c.005-.139.008-.279.008-.418q0-2.276,0-4.552c0-.124,0-.248,0-.372,0-.2.044-.242.247-.243.278,0,.557,0,.835.006a.158.158,0,0,1,.155.142c.007.139.012.278.012.417,0,.759,0,1.517,0,2.276,0,.108.011.216.019.324,0,.034.078.074.108.058.122-.066.244-.131.365-.2a5.85,5.85,0,0,1,1.366-.57,3.974,3.974,0,0,1,1.379-.129,2.494,2.494,0,0,1,.933.26,2.027,2.027,0,0,1,1.087,1.373,2.427,2.427,0,0,1,.015,1.194,1.61,1.61,0,0,0-.048.273.173.173,0,0,0,.052.121.452.452,0,0,0,.157.1,1.467,1.467,0,0,0,.5.1c.263,0,.527.007.79,0a.867.867,0,0,0,.871-.8,3.651,3.651,0,0,0,.018-.417c0-.588,0-1.176,0-1.765a2.2,2.2,0,0,1,.021-.323c.006-.037.049-.094.081-.1a4.98,4.98,0,0,1,1.063,0,.134.134,0,0,1,.083.095,2.874,2.874,0,0,1,.018.37q0,1.231-.016,2.462a.283.283,0,0,0,.15.267,1.207,1.207,0,0,0,.293.133,2.759,2.759,0,0,0,.457.073,3.526,3.526,0,0,0,.464,0,.849.849,0,0,0,.786-.676,3.114,3.114,0,0,0,.048-.554c.005-.727,0-1.455,0-2.183q0-.905,0-1.811c0-.124.006-.247.014-.371a.156.156,0,0,1,.158-.138c.294,0,.588-.005.882,0,.139,0,.191.057.2.2,0,.124,0,.248,0,.371q0,2.044,0,4.087c0,.232-.011.464-.014.7a.206.206,0,0,0,.082.159.961.961,0,0,0,.6.217c.293.014.587,0,.881,0a.135.135,0,0,0,.116-.122c.006-.139.012-.278.013-.417q0-2.3,0-4.6c0-.154.007-.309.013-.463a.136.136,0,0,1,.12-.119q.487-.005.974-.006a.159.159,0,0,1,.143.154c.006.092.01.185.01.278q0,2.972,0,5.945c0,.436,0,.438-.437.439q-.789,0-1.579,0a1.893,1.893,0,0,1-1.17-.382q-.074-.056-.151-.108a.307.307,0,0,0-.062-.022.922.922,0,0,0-.139.092,1.621,1.621,0,0,1-1.058.413,5.8,5.8,0,0,1-1.158-.047,1.448,1.448,0,0,1-.71-.32c-.084-.068-.161-.145-.246-.212a.094.094,0,0,0-.086,0,1.026,1.026,0,0,0-.141.119,1.617,1.617,0,0,1-1.041.455c-.124.008-.247.012-.371.013-.248,0-.5,0-.743,0a1.958,1.958,0,0,1-1.334-.446,1.135,1.135,0,0,0-.1-.071.221.221,0,0,0-.181.053c-.158.1-.312.2-.478.283a2.253,2.253,0,0,1-.858.176c-.139.009-.279,0-.418,0h-4.782c-.139,0-.279,0-.418,0-.233,0-.269.037-.314.251-.028.136-.057.273-.1.405a1.611,1.611,0,0,1-.762.956,3.417,3.417,0,0,1-.992.381.343.343,0,0,0-.207.091Zm6.57-3.167h0c.417,0,.834,0,1.25,0a1.6,1.6,0,0,0,.5-.069.861.861,0,0,0,.543-.47,1.272,1.272,0,0,0,.127-.675,1.122,1.122,0,0,0-.588-.939,1.23,1.23,0,0,0-.48-.157,3.545,3.545,0,0,0-.923.03,4.768,4.768,0,0,0-1.922.871.235.235,0,0,0-.1.2c0,.34,0,.679,0,1.019a.213.213,0,0,0,.018.09c.02.04.043.084.1.087.092.006.185.015.277.015C300.433,305.543,300.834,305.542,301.236,305.542Z" transform="translate(-253.147 -229.027)" fill="#f8bc15"/>
        <path id="Path_23" data-name="Path 23" d="M185.647,304.474c.371,0,.743,0,1.114,0a.691.691,0,0,1,.182.026.1.1,0,0,1,.063.063,1.926,1.926,0,0,1,.023.277c0,.588,0,1.177,0,1.765a1.525,1.525,0,0,0,.067.5.918.918,0,0,0,.643.615,1.761,1.761,0,0,0,.455.082c.51.01,1.021,0,1.532,0a.171.171,0,0,0,.165-.185c0-.124,0-.248.005-.371,0-.527,0-1.053,0-1.58,0-.17.007-.34.017-.51a1.918,1.918,0,0,1,.265-.832,1.7,1.7,0,0,1,1.254-.865,4.117,4.117,0,0,1,.647-.057c.526-.008,1.053,0,1.579,0a.994.994,0,0,1,.229.025.107.107,0,0,1,.09.094c.006.077.015.154.016.231q0,1.858,0,3.716a1.063,1.063,0,0,1-.018.23c-.008.037-.053.068-.084.1a.07.07,0,0,1-.044.012c-.324,0-.649,0-.974,0a.149.149,0,0,1-.144-.152c0-.139-.008-.279-.008-.418,0-.774,0-1.549,0-2.323a2.191,2.191,0,0,0-.02-.323.135.135,0,0,0-.083-.095,1.559,1.559,0,0,0-.9.129.9.9,0,0,0-.509.625,2.315,2.315,0,0,0-.064.6q0,1.092,0,2.183c0,.232,0,.464-.009.7a.155.155,0,0,1-.15.146c-.108.006-.216.011-.324.012-.851,0-1.7,0-2.554,0a6.436,6.436,0,0,1-.648-.041,1.776,1.776,0,0,1-1.623-1.428c-.019-.075-.034-.151-.057-.224a.187.187,0,0,0-.13-.121Z" transform="translate(-185.647 -231.296)" fill="#f8bc15"/>
        <path id="Path_24" data-name="Path 24" d="M274.509,312.813a7.646,7.646,0,0,1-.462-1.009.12.12,0,0,1,.082-.143c.059-.017.119-.03.178-.048a3.682,3.682,0,0,0,.4-.128.652.652,0,0,0,.345-.361,1.218,1.218,0,0,0,.107-.449c0-.155.006-.31.006-.464q0-1.671,0-3.342c0-.139,0-.278.01-.417a.134.134,0,0,1,.109-.129q.509,0,1.018,0a.137.137,0,0,1,.113.128c.007.123.014.247.014.37q0,.975,0,1.95c0,.124,0,.247,0,.371a.36.36,0,0,0,.18.306,1.028,1.028,0,0,0,.564.19c.494.01.989,0,1.484,0a.134.134,0,0,0,.12-.118c.006-.124.013-.247.013-.37,0-.758,0-1.516,0-2.275,0-.139,0-.279.01-.418a.153.153,0,0,1,.152-.143q.487,0,.973.008a.139.139,0,0,1,.12.12c.006.077.013.154.013.231q0,1.857,0,3.714c0,.062,0,.124-.007.186a.168.168,0,0,1-.155.144c-.123.007-.247.011-.371.012q-.882,0-1.763,0a2.727,2.727,0,0,1-1.277-.2.462.462,0,0,0-.058.12c-.026.152-.041.307-.064.46a1.855,1.855,0,0,1-1.159,1.507c-.112.05-.235.075-.351.118a1.322,1.322,0,0,0-.161.082Z" transform="translate(-241.35 -233.131)" fill="#f8bc15"/>
        <path id="Path_25" data-name="Path 25" d="M409.153,312.814l-.451-1.051a.215.215,0,0,1,.149-.12c.134-.035.269-.065.4-.106a.762.762,0,0,0,.55-.676,4.586,4.586,0,0,0,.028-.6c0-1.112,0-2.223,0-3.336,0-.154.005-.308.011-.462a.156.156,0,0,1,.149-.147q.486,0,.972.006a.136.136,0,0,1,.122.116c.006.092.012.185.012.277q0,1.876,0,3.752a3.776,3.776,0,0,1-.081.781,1.836,1.836,0,0,1-1.09,1.349c-.125.058-.263.088-.392.138a.461.461,0,0,0-.1.08Z" transform="translate(-326.207 -233.132)" fill="#f8bc15"/>
        <path id="Path_26" data-name="Path 26" d="M209.049,312.8a.869.869,0,0,0-.035-.177c-.09-.213-.188-.423-.281-.635-.037-.084-.068-.171-.1-.252a.3.3,0,0,1,.2-.122c.134-.034.27-.064.4-.11a.729.729,0,0,0,.473-.529,2.537,2.537,0,0,0,.073-.689q0-1.413,0-2.826c0-.294,0-.587,0-.881a.573.573,0,0,1,.022-.182.143.143,0,0,1,.093-.086c.215-.012.431-.017.647-.018.5,0,.48-.027.481.477q0,1.784,0,3.568c0,.2-.012.4-.024.6a2.164,2.164,0,0,1-.15.628,1.808,1.808,0,0,1-1.014,1.024c-.125.057-.264.085-.394.132a.564.564,0,0,0-.112.075Z" transform="translate(-200.132 -233.12)" fill="#f8bc15"/>
        <path id="Path_27" data-name="Path 27" d="M352.077,132.366q0,2.322,0,4.644c0,.154-.008.309-.015.463a.086.086,0,0,1-.139.052c-.122-.095-.246-.188-.365-.286-.408-.332-.813-.668-1.222-1-.426-.345-.4-.371-.72.1-.659.955-1.328,1.9-1.987,2.86q-1.317,1.912-2.7,3.776-1.716,2.311-3.424,4.628c-.985,1.332-2.01,2.632-3.055,3.917s-2.119,2.586-3.174,3.882c-.988,1.213-2.046,2.364-3.143,3.479s-2.2,2.223-3.3,3.329c-.822.821-1.7,1.577-2.593,2.324-.806.677-1.639,1.32-2.481,1.952a27.01,27.01,0,0,1-5.411,3.127,20.122,20.122,0,0,1-3.649,1.206,14.037,14.037,0,0,1-3.87.341,8.079,8.079,0,0,1-1.372-.218,11.453,11.453,0,0,1-2.2-.732,7.827,7.827,0,0,1-1.953-1.238,6.034,6.034,0,0,1-1.944-3.3,8.026,8.026,0,0,1-.112-2.722,11.28,11.28,0,0,1,.3-1.547,6.516,6.516,0,0,1,.382-1.044c.119-.259.161-.265.319-.037q.977,1.412,1.954,2.826a1.792,1.792,0,0,1,.244.5,4.588,4.588,0,0,0,.517,1.086,7.236,7.236,0,0,0,1.311,1.558,4.874,4.874,0,0,0,2.348,1.148,7.334,7.334,0,0,0,2.447.027,12.216,12.216,0,0,0,2.893-.816,23.037,23.037,0,0,0,4.423-2.433c.879-.608,1.722-1.263,2.559-1.926.631-.5,1.256-1.007,1.882-1.512.784-.633,1.52-1.317,2.239-2.022,1.77-1.735,3.436-3.566,5.082-5.417,1.184-1.331,2.287-2.728,3.387-4.127q.991-1.259,1.986-2.514c.134-.17.268-.341.4-.516q1.869-2.573,3.736-5.147c.537-.739,1.05-1.494,1.549-2.259q1.418-2.179,2.756-4.408c.079-.132.155-.267.228-.4a.133.133,0,0,0-.124-.193c-.124,0-.247,0-.371,0-.665.007-1.331.016-2,.021a.684.684,0,0,1-.172-.034c-.008,0-.02-.034-.014-.041a.778.778,0,0,1,.121-.135q.769-.6,1.542-1.193,3.215-2.483,6.432-4.964c.122-.094.251-.178.377-.267.031-.022.1.018.1.061.007.139.017.278.017.416q0,2.369,0,4.737Z" transform="translate(-259.712 -120.227)" fill="#f8bc15"/>
        <path id="Path_28" data-name="Path 28" d="M221.589,305.55a.343.343,0,0,0,.011-.1.2.2,0,0,0-.047-.078,1.932,1.932,0,0,1,.245-2.536,2.465,2.465,0,0,1,1.58-.7,4.688,4.688,0,0,1,1.065.04c.153.024.308.03.461.054.136.022.271.056.406.088a.115.115,0,0,1,.079.1,1.55,1.55,0,0,1,.013.231c0,.666,0,1.331,0,2,0,.154-.021.308-.035.462a.251.251,0,0,0,.115.237,1.051,1.051,0,0,0,.608.2,6.373,6.373,0,0,0,1.479-.087c.012,0,.023-.016.034-.024.021-.088-.042-.143-.087-.2-.292-.381-.559-.779-.812-1.188-.041-.066-.083-.13-.124-.2a.4.4,0,0,1-.051-.312q.106-.451.213-.9a.2.2,0,0,1,.117-.136,5.939,5.939,0,0,1,1.767-.539,2.868,2.868,0,0,1,1.79.35,2.264,2.264,0,0,1,.73.634,1.416,1.416,0,0,1,.229,1.317,2.546,2.546,0,0,1-.469.846c-.078.1-.162.186-.237.283a.08.08,0,0,0,.021.072.858.858,0,0,0,.222.061,12.57,12.57,0,0,0,1.53.017.138.138,0,0,0,.121-.118c.006-.155.013-.309.013-.463q0-2.3,0-4.6c0-.139.006-.278.011-.417a.135.135,0,0,1,.115-.124q.487,0,.973,0a.144.144,0,0,1,.127.115c.009.092.02.184.021.277,0,.325,0,.65,0,.975q0,2.392,0,4.783c0,.155,0,.31-.007.464,0,.126-.074.189-.209.2-.093,0-.186,0-.279,0-.542,0-1.083.007-1.625,0a9.19,9.19,0,0,1-2.388-.288.613.613,0,0,0-.319,0,10.075,10.075,0,0,1-2.02.264c-.155,0-.309.017-.463.026a1.982,1.982,0,0,1-1.432-.426,1.08,1.08,0,0,0-.153-.089,1.432,1.432,0,0,0-.124.091,1.663,1.663,0,0,1-1.1.424c-.077,0-.155,0-.232,0q-1.6,0-3.2,0a4.026,4.026,0,0,1-.462-.032,1.325,1.325,0,0,1-1.146-.95,1.656,1.656,0,0,1-.11-.591c0-.124,0-.247,0-.371q0-2.183,0-4.365c0-.124.005-.247.01-.371a.134.134,0,0,1,.111-.128q.509,0,1.019,0a.114.114,0,0,1,.1.085.392.392,0,0,1,.023.136c0,.139,0,.278,0,.418q0,2,0,3.994c0,.139,0,.279.01.418a1.164,1.164,0,0,0,.031.229.515.515,0,0,0,.354.4.842.842,0,0,0,.225.049C220.819,305.562,221.205,305.566,221.589,305.55Zm7.318-2.392a3.193,3.193,0,0,0-1.154.313.117.117,0,0,0-.035.16,6.668,6.668,0,0,0,1.221,1.616.244.244,0,0,0,.037.027.171.171,0,0,0,.175.013,2.385,2.385,0,0,0,.788-.63,1.155,1.155,0,0,0,.145-.235.763.763,0,0,0-.294-1.042A1.772,1.772,0,0,0,228.907,303.158Zm-4.786.9h0c0-.216,0-.432,0-.648a.166.166,0,0,0-.139-.159,2.267,2.267,0,0,0-.691-.01.83.83,0,0,0-.576.351,1.556,1.556,0,0,0-.08,1.376,1.084,1.084,0,0,0,.807.557.224.224,0,0,0,.134-.018,1.018,1.018,0,0,0,.232-.148.962.962,0,0,0,.311-.652C224.132,304.49,224.121,304.273,224.121,304.057Z" transform="translate(-206.379 -229.042)" fill="#f8bc15"/>
        <path id="Path_29" data-name="Path 29" d="M375.935,299.8c.487,0,.935-.017,1.383.011.02,0,.041.039.055.063.005.009,0,.032-.012.042-.081.093-.161.188-.247.275q-1,1.007-1.995,2.012c-.075.076-.143.16-.213.242a.047.047,0,0,0-.007.043c.016.023.037.057.058.059a2.657,2.657,0,0,0,.277.014c.418,0,.835,0,1.253,0a2.617,2.617,0,0,1,.826.105,3.487,3.487,0,0,1,.474.183,1.675,1.675,0,0,1,.921,1.314,3.13,3.13,0,0,1-.072,1.289,6.838,6.838,0,0,1-.346,1.008.233.233,0,0,1-.213.153c-.124,0-.247.006-.371.006q-2.159,0-4.318,0c-.247,0-.494-.022-.741-.043a1.437,1.437,0,0,1-.871-.393.737.737,0,0,0-.264-.205c-.054.048-.112.1-.168.148a1.923,1.923,0,0,1-1.455.487c-.108,0-.215-.023-.323-.031a1.626,1.626,0,0,1-.853-.332c-.062-.046-.121-.1-.186-.139a.1.1,0,0,0-.087,0,.443.443,0,0,0-.113.079,1.688,1.688,0,0,1-1.146.431c-.17.006-.34,0-.51,0-.093,0-.185.008-.277.015a.135.135,0,0,0-.119.12q-.008.232-.011.464c0,.278-.005.557-.008.835a.147.147,0,0,1-.117.125c-.092.008-.185.018-.277.018-.727,0-1.455,0-2.182,0a4.992,4.992,0,0,1-.647-.05,1.746,1.746,0,0,1-1.49-1.227,1.49,1.49,0,0,1-.105-.5q0-.929,0-1.857a.322.322,0,0,1,.007-.046.143.143,0,0,1,.126-.115q.487,0,.973,0a.139.139,0,0,1,.118.121c.006.108.013.216.013.324,0,.325,0,.65,0,.975a2.2,2.2,0,0,0,.06.506.914.914,0,0,0,.621.692,1.586,1.586,0,0,0,.546.1c.294,0,.588,0,.882,0,.149,0,.2-.051.207-.185s0-.279,0-.418q0-1.881,0-3.762c0-.139.006-.279.012-.418a.139.139,0,0,1,.115-.125q.51,0,1.019,0a.135.135,0,0,1,.117.122c.005.139.011.278.011.417q0,1.115,0,2.229c0,.124,0,.248,0,.372s.059.182.208.185c.108,0,.217.006.325,0a.846.846,0,0,0,.778-.564.968.968,0,0,0,.081-.36c0-.108,0-.217,0-.325,0-.527,0-1.053,0-1.579,0-.124.006-.247.011-.371a.139.139,0,0,1,.114-.125c.061-.006.123-.012.185-.013.756-.014.878-.01.905.065a2.648,2.648,0,0,1,.047.872c.012.449,0,.9,0,1.347,0,.139.011.278.021.417a.543.543,0,0,0,.1.255,1.05,1.05,0,0,0,1.086.331.76.76,0,0,0,.489-.573,3.29,3.29,0,0,0,.048-.6c.006-.635,0-1.269,0-1.9,0-.124,0-.248.006-.371a.906.906,0,0,1,.041-.168.272.272,0,0,1,.056-.022,6.276,6.276,0,0,1,1.018-.011.138.138,0,0,1,.124.115c.005.061.012.123.012.185q0,1.277,0,2.554c0,.124-.011.247-.017.371a.256.256,0,0,0,.123.234,1.084,1.084,0,0,0,.376.173,2.5,2.5,0,0,0,.551.069l.882,0q1.486,0,2.972,0a1.447,1.447,0,0,0,.473-.033.685.685,0,0,0,.082-.153c.043-.164.082-.331.108-.5a1.225,1.225,0,0,0-.07-.594.761.761,0,0,0-.345-.422,1.16,1.16,0,0,0-.433-.159,4.984,4.984,0,0,0-.693-.058c-.511,0-1.022,0-1.532,0-.124,0-.247,0-.371-.013a.164.164,0,0,1-.146-.1c-.122-.267-.246-.534-.367-.8a.228.228,0,0,1,.033-.26c.051-.058.1-.118.152-.175q1.013-1.119,2.026-2.238C375.813,299.956,375.878,299.869,375.935,299.8Z" transform="translate(-296.419 -229.022)" fill="#f8bc15"/>
        <path id="Path_30" data-name="Path 30" d="M265.158,303.285v2.739c0,.124,0,.248,0,.371-.007.176-.024.234-.257.239-.17,0-.34,0-.51,0-.491,0-.487,0-.487-.485q0-2.925,0-5.849c0-.108,0-.216.009-.324a.161.161,0,0,1,.141-.156q.487,0,.973,0a.135.135,0,0,1,.119.12c.006.139.013.278.013.417Q265.159,301.823,265.158,303.285Z" transform="translate(-234.96 -229.041)" fill="#f8bc15"/>
        <path id="Path_31" data-name="Path 31" d="M419.511,306.159q0,1.2,0,2.407c0,.062,0,.124-.007.185a.17.17,0,0,1-.154.144c-.031,0-.061.009-.092.009-.262,0-.524,0-.787,0-.173,0-.225-.057-.23-.216,0-.077,0-.154,0-.231q0-2.292,0-4.583c0-.108.006-.215.012-.323a.144.144,0,0,1,.125-.116.336.336,0,0,1,.046-.01c.308,0,.617,0,.925,0a.171.171,0,0,1,.085.031c.023.016.053.041.057.065a1.963,1.963,0,0,1,.022.275Q419.513,304.979,419.511,306.159Z" transform="translate(-332.217 -231.31)" fill="#f8bc15"/>
        <path id="Path_32" data-name="Path 32" d="M228.45,302.365c-.155,0-.309,0-.463,0-.1,0-.161-.065-.165-.179s-.006-.216,0-.324c.008-.7-.083-.614.615-.618.185,0,.37.008.554.015a.137.137,0,0,1,.116.123c.005.185.01.37.011.556,0,.439.006.435-.432.433h-.232Z" transform="translate(-212.221 -229.936)" fill="#f8bc15"/>
        <path id="Path_33" data-name="Path 33" d="M233.243,302.357c-.17,0-.34,0-.51,0a.139.139,0,0,1-.119-.119,1.251,1.251,0,0,1-.01-.138c.022-1.017-.181-.839.841-.857a2.8,2.8,0,0,1,.368.026c.024,0,.051.036.064.061a.208.208,0,0,1,.018.09c0,.093.006.186,0,.279C233.889,302.462,234,302.359,233.243,302.357Z" transform="translate(-215.235 -229.934)" fill="#f8bc15"/>
        <path id="Path_34" data-name="Path 34" d="M334.875,302.375c-.154,0-.308,0-.461,0a.152.152,0,0,1-.142-.151q0-.415.006-.83a.131.131,0,0,1,.113-.124q.507-.006,1.014-.006a.153.153,0,0,1,.143.153c0,.261.006.523,0,.784a.164.164,0,0,1-.17.177c-.169,0-.338,0-.507,0Z" transform="translate(-279.304 -229.95)" fill="#f8bc15"/>
        <path id="Path_35" data-name="Path 35" d="M283.2,321.457c-.139,0-.278,0-.416,0s-.192-.056-.193-.2c0-.262,0-.524.007-.786a.134.134,0,0,1,.114-.123c.293-.006.585-.014.877-.013.259,0,.289.033.29.294,0,.231-.006.462-.01.693a.137.137,0,0,1-.115.123c-.185.008-.369.013-.554.02Z" transform="translate(-246.738 -241.968)" fill="#f8bc15"/>
        <path id="Path_36" data-name="Path 36" d="M287.99,321.466c-.154,0-.308,0-.462,0a.145.145,0,0,1-.141-.151c0-.277,0-.554.006-.832a.132.132,0,0,1,.119-.118c.338,0,.677,0,1.016,0a.142.142,0,0,1,.14.151c0,.277,0,.554-.006.832a.133.133,0,0,1-.118.119c-.185,0-.369,0-.554,0Z" transform="translate(-249.76 -241.983)" fill="#f8bc15"/>
        <path id="Path_37" data-name="Path 37" d="M330.071,302.381c-.693,0-.623.084-.628-.607,0-.124.008-.247.014-.371a.14.14,0,0,1,.114-.127q.51,0,1.02,0a.14.14,0,0,1,.124.117,4.208,4.208,0,0,1,0,.879.144.144,0,0,1-.129.11C330.411,302.382,330.241,302.381,330.071,302.381Z" transform="translate(-276.261 -229.956)" fill="#f8bc15"/>
        <path id="Path_38" data-name="Path 38" d="M417.795,299.563a.272.272,0,0,1,.085-.033q.858,0,1.715,0a.148.148,0,0,1,.155.138c0,.123,0,.247,0,.37a.149.149,0,0,1-.159.135q-.556.006-1.113.006c-.232,0-.463,0-.7-.008a.126.126,0,0,1-.116-.116A1.017,1.017,0,0,1,417.795,299.563Z" transform="translate(-331.857 -228.855)" fill="#f8bc15"/>
        <path id="Path_39" data-name="Path 39" d="M319.79,205.666a10.7,10.7,0,0,1,1.786-.575.575.575,0,0,1,.156.012,3.4,3.4,0,0,1-.587.314c-.187.107-.38.2-.567.309s-.368.221-.548.33C319.831,205.887,319.831,205.887,319.79,205.666Z" transform="translate(-270.179 -169.343)" fill="#f8bc15"/>
      </g>
    </g>
  </g>
</svg>
